# MagicaVoxel @ Ephtracy

# material
mtllib вилсат.mtl
usemtl palette

# normals
vn -1 0 0
vn 1 0 0
vn 0 0 1
vn 0 0 -1
vn 0 -1 0
vn 0 1 0

# texcoords
vt 0.0292969 0.5
vt 0.166016 0.5
vt 0.365234 0.5
vt 0.935547 0.5
vt 0.994141 0.5

# verts
v -14 12 -1
v -14 12 -3
v -14 13 -1
v -14 13 -3
v -13 13 -1
v -13 13 -3
v -13 14 -1
v -13 14 -3
v -11 14 -1
v -11 14 -3
v -11 15 -1
v -11 15 -3
v -10 8 9
v -10 8 -5
v -10 9 9
v -10 9 -5
v -10 9 -6
v -10 13 -1
v -10 13 -3
v -10 15 -1
v -10 15 -3
v -10 21 9
v -10 21 -6
v -9 7 8
v -9 7 -7
v -9 8 8
v -9 8 -5
v -9 9 -5
v -9 9 -6
v -9 9 -7
v -9 10 -7
v -9 10 -8
v -9 21 -6
v -9 21 -8
v -8 5 8
v -8 5 -6
v -8 7 8
v -8 7 -6
v -8 9 -7
v -8 9 -9
v -8 10 -7
v -8 10 -8
v -8 10 -9
v -8 10 -10
v -8 18 -8
v -8 18 -10
v -7 10 -10
v -7 10 -11
v -7 15 -10
v -7 15 -11
v -5 4 6
v -5 4 -4
v -5 5 6
v -5 5 -4
v -5 11 -11
v -5 11 -12
v -5 13 -11
v -5 13 -12
v -3 0 2
v -3 0 -2
v -3 4 2
v -3 4 -2
v 1 0 2
v 1 0 -2
v 1 4 2
v 1 4 -2
v 7 6 5
v 7 6 4
v 7 8 5
v 7 8 4
v 11 12 -1
v 11 12 -3
v 11 13 -1
v 11 13 -3
v -11 12 -1
v -11 12 -3
v -11 13 -1
v -11 13 -3
v -1 0 2
v -1 0 -2
v -1 4 2
v -1 4 -2
v 3 0 2
v 3 0 -2
v 3 4 2
v 3 4 -2
v 4 11 -11
v 4 11 -12
v 4 13 -11
v 4 13 -12
v 5 4 6
v 5 4 -4
v 5 5 6
v 5 5 -4
v 6 6 5
v 6 6 4
v 6 8 5
v 6 8 4
v 7 10 -9
v 7 10 -11
v 7 15 -10
v 7 15 -11
v 7 18 -9
v 7 18 -10
v 8 5 8
v 8 5 -6
v 8 7 -6
v 8 7 -7
v 8 8 8
v 8 8 -7
v 8 9 -8
v 8 9 -9
v 8 18 -8
v 8 18 -9
v 9 9 -7
v 9 9 -8
v 9 21 -7
v 9 21 -8
v 10 8 9
v 10 8 -7
v 10 9 9
v 10 9 -7
v 10 13 -1
v 10 13 -3
v 10 15 -1
v 10 15 -3
v 10 21 9
v 10 21 -7
v 11 14 -1
v 11 14 -3
v 11 15 -1
v 11 15 -3
v 13 13 -1
v 13 13 -3
v 13 14 -1
v 13 14 -3
v 14 12 -1
v 14 12 -3
v 14 13 -1
v 14 13 -3
v -10 8 9
v -10 9 9
v -10 21 9
v 10 8 9
v 10 9 9
v 10 21 9
v -9 7 8
v -9 8 8
v -8 5 8
v -8 7 8
v 8 5 8
v 8 8 8
v -5 4 6
v -5 5 6
v 5 4 6
v 5 5 6
v 6 6 4
v 6 8 4
v 7 6 4
v 7 8 4
v -3 0 2
v -3 4 2
v -1 0 2
v -1 4 2
v 1 0 2
v 1 4 2
v 3 0 2
v 3 4 2
v -14 12 -1
v -14 13 -1
v -13 13 -1
v -13 14 -1
v -11 12 -1
v -11 13 -1
v -11 14 -1
v -11 15 -1
v -10 13 -1
v -10 15 -1
v 10 13 -1
v 10 15 -1
v 11 12 -1
v 11 13 -1
v 11 14 -1
v 11 15 -1
v 13 13 -1
v 13 14 -1
v 14 12 -1
v 14 13 -1
v 6 6 5
v 6 8 5
v 7 6 5
v 7 8 5
v -3 0 -2
v -3 4 -2
v -1 0 -2
v -1 4 -2
v 1 0 -2
v 1 4 -2
v 3 0 -2
v 3 4 -2
v -14 12 -3
v -14 13 -3
v -13 13 -3
v -13 14 -3
v -11 12 -3
v -11 13 -3
v -11 14 -3
v -11 15 -3
v -10 13 -3
v -10 15 -3
v 10 13 -3
v 10 15 -3
v 11 12 -3
v 11 13 -3
v 11 14 -3
v 11 15 -3
v 13 13 -3
v 13 14 -3
v 14 12 -3
v 14 13 -3
v -5 4 -4
v -5 5 -4
v 5 4 -4
v 5 5 -4
v -10 8 -5
v -10 9 -5
v -9 8 -5
v -9 9 -5
v -10 9 -6
v -10 21 -6
v -9 9 -6
v -9 21 -6
v -8 5 -6
v -8 7 -6
v 8 5 -6
v 8 7 -6
v -9 7 -7
v -9 9 -7
v -9 10 -7
v -8 9 -7
v -8 10 -7
v 8 7 -7
v 8 8 -7
v 9 9 -7
v 9 21 -7
v 10 8 -7
v 10 9 -7
v 10 21 -7
v -9 10 -8
v -9 21 -8
v -8 10 -8
v -8 18 -8
v 8 9 -8
v 8 18 -8
v 9 9 -8
v 9 21 -8
v -8 9 -9
v -8 10 -9
v 7 10 -9
v 7 18 -9
v 8 9 -9
v 8 18 -9
v -8 10 -10
v -8 18 -10
v -7 10 -10
v -7 15 -10
v 7 15 -10
v 7 18 -10
v -7 10 -11
v -7 15 -11
v -5 11 -11
v -5 13 -11
v 4 11 -11
v 4 13 -11
v 7 10 -11
v 7 15 -11
v -5 11 -12
v -5 13 -12
v 4 11 -12
v 4 13 -12
v -3 0 2
v -1 0 2
v 1 0 2
v 3 0 2
v -3 0 -2
v -1 0 -2
v 1 0 -2
v 3 0 -2
v -5 4 6
v 5 4 6
v -3 4 2
v -1 4 2
v 1 4 2
v 3 4 2
v -3 4 -2
v -1 4 -2
v 1 4 -2
v 3 4 -2
v -5 4 -4
v 5 4 -4
v -8 5 8
v 8 5 8
v -5 5 6
v 5 5 6
v -5 5 -4
v 5 5 -4
v -8 5 -6
v 8 5 -6
v -9 7 8
v -8 7 8
v -8 7 -6
v 8 7 -6
v -9 7 -7
v 8 7 -7
v -10 8 9
v 10 8 9
v -9 8 8
v 8 8 8
v 6 8 5
v 7 8 5
v 6 8 4
v 7 8 4
v -10 8 -5
v -9 8 -5
v 8 8 -7
v 10 8 -7
v -10 9 -5
v -9 9 -5
v -10 9 -6
v -9 9 -6
v -8 9 -7
v 9 9 -7
v 8 9 -8
v 9 9 -8
v -8 9 -9
v 8 9 -9
v -9 10 -7
v -8 10 -7
v -9 10 -8
v -8 10 -8
v -8 10 -9
v 7 10 -9
v -8 10 -10
v -7 10 -10
v -7 10 -11
v 7 10 -11
v -5 11 -11
v 4 11 -11
v -5 11 -12
v 4 11 -12
v -14 12 -1
v -11 12 -1
v 11 12 -1
v 14 12 -1
v -14 12 -3
v -11 12 -3
v 11 12 -3
v 14 12 -3
v -11 13 -1
v -10 13 -1
v 10 13 -1
v 11 13 -1
v -11 13 -3
v -10 13 -3
v 10 13 -3
v 11 13 -3
v 6 6 5
v 7 6 5
v 6 6 4
v 7 6 4
v -14 13 -1
v -13 13 -1
v 13 13 -1
v 14 13 -1
v -14 13 -3
v -13 13 -3
v 13 13 -3
v 14 13 -3
v -5 13 -11
v 4 13 -11
v -5 13 -12
v 4 13 -12
v -13 14 -1
v -11 14 -1
v 11 14 -1
v 13 14 -1
v -13 14 -3
v -11 14 -3
v 11 14 -3
v 13 14 -3
v -11 15 -1
v -10 15 -1
v 10 15 -1
v 11 15 -1
v -11 15 -3
v -10 15 -3
v 10 15 -3
v 11 15 -3
v -7 15 -10
v 7 15 -10
v -7 15 -11
v 7 15 -11
v -8 18 -8
v 8 18 -8
v 7 18 -9
v 8 18 -9
v -8 18 -10
v 7 18 -10
v -10 21 9
v 10 21 9
v -10 21 -6
v -9 21 -6
v 9 21 -7
v 10 21 -7
v -9 21 -8
v 9 21 -8

# faces
f 3/1/1 2/1/1 1/1/1
f 4/1/1 2/1/1 3/1/1
f 7/1/1 6/1/1 5/1/1
f 8/1/1 6/1/1 7/1/1
f 11/5/1 10/5/1 9/5/1
f 12/5/1 10/5/1 11/5/1
f 15/4/1 14/4/1 13/4/1
f 16/4/1 14/4/1 15/4/1
f 18/5/1 16/5/1 15/5/1
f 18/5/1 17/5/1 16/5/1
f 19/5/1 17/5/1 18/5/1
f 20/5/1 18/5/1 15/5/1
f 21/5/1 17/5/1 19/5/1
f 22/5/1 20/5/1 15/5/1
f 22/5/1 21/5/1 20/5/1
f 23/5/1 17/5/1 21/5/1
f 23/5/1 21/5/1 22/5/1
f 26/4/1 25/4/1 24/4/1
f 27/4/1 25/4/1 26/4/1
f 28/4/1 25/4/1 27/4/1
f 29/4/1 25/4/1 28/4/1
f 30/4/1 25/4/1 29/4/1
f 31/5/1 30/5/1 29/5/1
f 33/5/1 31/5/1 29/5/1
f 33/5/1 32/5/1 31/5/1
f 34/5/1 32/5/1 33/5/1
f 37/4/1 36/4/1 35/4/1
f 38/4/1 36/4/1 37/4/1
f 41/5/1 40/5/1 39/5/1
f 42/5/1 40/5/1 41/5/1
f 43/5/1 40/5/1 42/5/1
f 45/5/1 44/5/1 43/5/1
f 45/5/1 43/5/1 42/5/1
f 46/5/1 44/5/1 45/5/1
f 49/5/1 48/5/1 47/5/1
f 50/5/1 48/5/1 49/5/1
f 53/4/1 52/4/1 51/4/1
f 54/4/1 52/4/1 53/4/1
f 57/5/1 56/5/1 55/5/1
f 58/5/1 56/5/1 57/5/1
f 61/3/1 60/3/1 59/3/1
f 62/3/1 60/3/1 61/3/1
f 65/3/1 64/3/1 63/3/1
f 66/3/1 64/3/1 65/3/1
f 69/4/1 68/4/1 67/4/1
f 70/4/1 68/4/1 69/4/1
f 73/1/1 72/1/1 71/1/1
f 74/1/1 72/1/1 73/1/1
f 75/1/2 76/1/2 77/1/2
f 77/1/2 76/1/2 78/1/2
f 79/3/2 80/3/2 81/3/2
f 81/3/2 80/3/2 82/3/2
f 83/3/2 84/3/2 85/3/2
f 85/3/2 84/3/2 86/3/2
f 87/5/2 88/5/2 89/5/2
f 89/5/2 88/5/2 90/5/2
f 91/4/2 92/4/2 93/4/2
f 93/4/2 92/4/2 94/4/2
f 95/4/2 96/4/2 97/4/2
f 97/4/2 96/4/2 98/4/2
f 99/5/2 100/5/2 101/5/2
f 101/5/2 100/5/2 102/5/2
f 99/5/2 101/5/2 103/5/2
f 103/5/2 101/5/2 104/5/2
f 105/4/2 106/4/2 107/4/2
f 105/4/2 107/4/2 109/4/2
f 107/4/2 108/4/2 109/4/2
f 109/4/2 108/4/2 110/4/2
f 111/5/2 112/5/2 113/5/2
f 113/5/2 112/5/2 114/5/2
f 115/5/2 116/5/2 117/5/2
f 117/5/2 116/5/2 118/5/2
f 119/4/2 120/4/2 121/4/2
f 121/4/2 120/4/2 122/4/2
f 121/5/2 122/5/2 123/5/2
f 123/5/2 122/5/2 124/5/2
f 121/5/2 123/5/2 125/5/2
f 124/5/2 122/5/2 126/5/2
f 121/5/2 125/5/2 127/5/2
f 125/5/2 126/5/2 127/5/2
f 126/5/2 122/5/2 128/5/2
f 127/5/2 126/5/2 128/5/2
f 129/5/2 130/5/2 131/5/2
f 131/5/2 130/5/2 132/5/2
f 133/1/2 134/1/2 135/1/2
f 135/1/2 134/1/2 136/1/2
f 137/1/2 138/1/2 139/1/2
f 139/1/2 138/1/2 140/1/2
f 144/4/3 142/4/3 141/4/3
f 145/5/3 143/5/3 142/5/3
f 145/4/3 142/4/3 144/4/3
f 146/5/3 143/5/3 145/5/3
f 150/4/3 148/4/3 147/4/3
f 151/4/3 150/4/3 149/4/3
f 152/4/3 148/4/3 150/4/3
f 152/4/3 150/4/3 151/4/3
f 155/4/3 154/4/3 153/4/3
f 156/4/3 154/4/3 155/4/3
f 159/4/3 158/4/3 157/4/3
f 160/4/3 158/4/3 159/4/3
f 163/3/3 162/3/3 161/3/3
f 164/3/3 162/3/3 163/3/3
f 167/3/3 166/3/3 165/3/3
f 168/3/3 166/3/3 167/3/3
f 171/1/3 170/1/3 169/1/3
f 173/1/3 171/1/3 169/1/3
f 173/1/3 172/1/3 171/1/3
f 174/1/3 172/1/3 173/1/3
f 175/1/3 172/1/3 174/1/3
f 177/5/3 176/5/3 175/5/3
f 177/5/3 175/5/3 174/5/3
f 178/5/3 176/5/3 177/5/3
f 182/5/3 180/5/3 179/5/3
f 183/5/3 180/5/3 182/5/3
f 184/5/3 180/5/3 183/5/3
f 185/1/3 182/1/3 181/1/3
f 185/1/3 183/1/3 182/1/3
f 186/1/3 183/1/3 185/1/3
f 187/1/3 185/1/3 181/1/3
f 188/1/3 185/1/3 187/1/3
f 189/4/4 190/4/4 191/4/4
f 191/4/4 190/4/4 192/4/4
f 193/3/4 194/3/4 195/3/4
f 195/3/4 194/3/4 196/3/4
f 197/3/4 198/3/4 199/3/4
f 199/3/4 198/3/4 200/3/4
f 201/1/4 202/1/4 203/1/4
f 201/1/4 203/1/4 205/1/4
f 203/1/4 204/1/4 205/1/4
f 205/1/4 204/1/4 206/1/4
f 206/1/4 204/1/4 207/1/4
f 207/5/4 208/5/4 209/5/4
f 206/5/4 207/5/4 209/5/4
f 209/5/4 208/5/4 210/5/4
f 211/5/4 212/5/4 214/5/4
f 214/5/4 212/5/4 215/5/4
f 215/5/4 212/5/4 216/5/4
f 213/1/4 214/1/4 217/1/4
f 214/1/4 215/1/4 217/1/4
f 217/1/4 215/1/4 218/1/4
f 213/1/4 217/1/4 219/1/4
f 219/1/4 217/1/4 220/1/4
f 221/4/4 222/4/4 223/4/4
f 223/4/4 222/4/4 224/4/4
f 225/4/4 226/4/4 227/4/4
f 227/4/4 226/4/4 228/4/4
f 229/5/4 230/5/4 231/5/4
f 231/5/4 230/5/4 232/5/4
f 233/4/4 234/4/4 235/4/4
f 235/4/4 234/4/4 236/4/4
f 237/4/4 238/4/4 240/4/4
f 238/5/4 239/5/4 240/5/4
f 240/5/4 239/5/4 241/5/4
f 237/4/4 240/4/4 242/4/4
f 242/4/4 240/4/4 243/4/4
f 243/4/4 240/4/4 244/4/4
f 243/4/4 244/4/4 246/4/4
f 244/5/4 245/5/4 247/5/4
f 246/4/4 244/4/4 247/4/4
f 247/5/4 245/5/4 248/5/4
f 249/5/4 250/5/4 251/5/4
f 251/5/4 250/5/4 252/5/4
f 252/5/4 250/5/4 254/5/4
f 253/5/4 254/5/4 255/5/4
f 254/5/4 250/5/4 256/5/4
f 255/5/4 254/5/4 256/5/4
f 257/5/4 258/5/4 259/5/4
f 257/5/4 259/5/4 261/5/4
f 259/5/4 260/5/4 261/5/4
f 261/5/4 260/5/4 262/5/4
f 263/5/4 264/5/4 265/5/4
f 265/5/4 264/5/4 266/5/4
f 266/5/4 264/5/4 267/5/4
f 267/5/4 264/5/4 268/5/4
f 269/5/4 270/5/4 271/5/4
f 271/5/4 270/5/4 272/5/4
f 269/5/4 271/5/4 273/5/4
f 272/5/4 270/5/4 274/5/4
f 269/5/4 273/5/4 275/5/4
f 273/5/4 274/5/4 275/5/4
f 274/5/4 270/5/4 276/5/4
f 275/5/4 274/5/4 276/5/4
f 277/5/4 278/5/4 279/5/4
f 279/5/4 278/5/4 280/5/4
f 285/3/5 282/3/5 281/3/5
f 286/3/5 282/3/5 285/3/5
f 287/3/5 284/3/5 283/3/5
f 288/3/5 284/3/5 287/3/5
f 291/4/5 290/4/5 289/4/5
f 292/4/5 290/4/5 291/4/5
f 293/4/5 290/4/5 292/4/5
f 294/4/5 290/4/5 293/4/5
f 295/4/5 291/4/5 289/4/5
f 296/4/5 293/4/5 292/4/5
f 297/4/5 293/4/5 296/4/5
f 298/4/5 290/4/5 294/4/5
f 299/4/5 297/4/5 296/4/5
f 299/4/5 298/4/5 297/4/5
f 299/4/5 295/4/5 289/4/5
f 299/4/5 296/4/5 295/4/5
f 300/4/5 290/4/5 298/4/5
f 300/4/5 298/4/5 299/4/5
f 303/4/5 302/4/5 301/4/5
f 304/4/5 302/4/5 303/4/5
f 305/4/5 303/4/5 301/4/5
f 306/4/5 302/4/5 304/4/5
f 307/4/5 305/4/5 301/4/5
f 307/4/5 306/4/5 305/4/5
f 308/4/5 302/4/5 306/4/5
f 308/4/5 306/4/5 307/4/5
f 311/4/5 310/4/5 309/4/5
f 313/4/5 311/4/5 309/4/5
f 313/4/5 312/4/5 311/4/5
f 314/4/5 312/4/5 313/4/5
f 317/4/5 316/4/5 315/4/5
f 318/4/5 316/4/5 317/4/5
f 321/4/5 320/4/5 319/4/5
f 322/4/5 320/4/5 321/4/5
f 323/4/5 317/4/5 315/4/5
f 324/4/5 317/4/5 323/4/5
f 325/4/5 316/4/5 318/4/5
f 326/4/5 316/4/5 325/4/5
f 329/5/5 328/5/5 327/5/5
f 330/5/5 328/5/5 329/5/5
f 333/5/5 332/5/5 331/5/5
f 334/5/5 332/5/5 333/5/5
f 335/5/5 333/5/5 331/5/5
f 336/5/5 333/5/5 335/5/5
f 339/5/5 338/5/5 337/5/5
f 340/5/5 338/5/5 339/5/5
f 343/5/5 342/5/5 341/5/5
f 344/5/5 342/5/5 343/5/5
f 345/5/5 342/5/5 344/5/5
f 346/5/5 342/5/5 345/5/5
f 349/5/5 348/5/5 347/5/5
f 350/5/5 348/5/5 349/5/5
f 355/1/5 352/1/5 351/1/5
f 356/1/5 352/1/5 355/1/5
f 357/1/5 354/1/5 353/1/5
f 358/1/5 354/1/5 357/1/5
f 363/5/5 360/5/5 359/5/5
f 364/5/5 360/5/5 363/5/5
f 365/5/5 362/5/5 361/5/5
f 366/5/5 362/5/5 365/5/5
f 367/4/6 368/4/6 369/4/6
f 369/4/6 368/4/6 370/4/6
f 371/1/6 372/1/6 375/1/6
f 375/1/6 372/1/6 376/1/6
f 373/1/6 374/1/6 377/1/6
f 377/1/6 374/1/6 378/1/6
f 379/5/6 380/5/6 381/5/6
f 381/5/6 380/5/6 382/5/6
f 383/1/6 384/1/6 387/1/6
f 387/1/6 384/1/6 388/1/6
f 385/1/6 386/1/6 389/1/6
f 389/1/6 386/1/6 390/1/6
f 391/5/6 392/5/6 395/5/6
f 395/5/6 392/5/6 396/5/6
f 393/5/6 394/5/6 397/5/6
f 397/5/6 394/5/6 398/5/6
f 399/5/6 400/5/6 401/5/6
f 401/5/6 400/5/6 402/5/6
f 403/5/6 404/5/6 405/5/6
f 405/5/6 404/5/6 406/5/6
f 403/5/6 405/5/6 407/5/6
f 407/5/6 405/5/6 408/5/6
f 409/5/6 410/5/6 411/5/6
f 411/5/6 410/5/6 412/5/6
f 412/5/6 410/5/6 413/5/6
f 413/5/6 410/5/6 414/5/6
f 412/5/6 413/5/6 415/5/6
f 415/5/6 413/5/6 416/5/6
