# MagicaVoxel @ Ephtracy

# material
mtllib афонят.mtl
usemtl palette

# normals
vn -1 0 0
vn 1 0 0
vn 0 0 1
vn 0 0 -1
vn 0 -1 0
vn 0 1 0

# texcoords
vt 0.0566406 0.5
vt 0.166016 0.5
vt 0.533203 0.5
vt 0.990234 0.5
vt 0.994141 0.5

# verts
v -14 12 -1
v -14 12 -3
v -14 13 -1
v -14 13 -3
v -13 13 -1
v -13 13 -3
v -13 14 -1
v -13 14 -3
v -11 14 -1
v -11 14 -3
v -11 15 -1
v -11 15 -3
v -9 8 7
v -9 8 -6
v -9 10 8
v -9 10 7
v -9 10 -6
v -9 10 -7
v -9 13 -1
v -9 13 -3
v -9 15 -1
v -9 15 -3
v -9 19 8
v -9 19 -7
v -9 20 8
v -9 20 -7
v -9 21 8
v -9 21 -7
v -8 7 6
v -8 7 -5
v -8 8 6
v -8 8 -5
v -8 19 7
v -8 19 -5
v -8 20 7
v -8 20 -5
v -8 20 -7
v -8 20 -8
v -8 21 -7
v -8 21 -8
v -7 5 5
v -7 5 -4
v -7 6 6
v -7 6 5
v -7 6 -4
v -7 6 -5
v -7 7 7
v -7 7 6
v -7 7 -5
v -7 7 -6
v -7 8 7
v -7 8 6
v -7 8 -5
v -7 8 -6
v -7 17 7
v -7 17 6
v -7 18 7
v -7 18 6
v -6 5 6
v -6 5 5
v -6 5 -4
v -6 5 -5
v -6 6 7
v -6 6 6
v -6 6 5
v -6 6 -4
v -6 6 -5
v -6 6 -6
v -6 7 7
v -6 7 6
v -6 7 -5
v -6 7 -6
v -3 0 2
v -3 0 -2
v -3 5 2
v -3 5 -2
v 1 0 2
v 1 0 -2
v 1 5 2
v 1 5 -2
v 3 10 -5
v 3 10 -6
v 3 10 -7
v 3 11 -5
v 3 11 -6
v 3 11 -7
v 4 16 7
v 4 16 6
v 4 17 7
v 4 17 6
v 11 12 -1
v 11 12 -3
v 11 13 -1
v 11 13 -3
v -11 12 -1
v -11 12 -3
v -11 13 -1
v -11 13 -3
v -8 17 7
v -8 17 6
v -8 18 7
v -8 18 6
v -3 10 -5
v -3 10 -6
v -3 10 -7
v -3 11 -5
v -3 11 -6
v -3 11 -7
v -1 0 2
v -1 0 -2
v -1 5 2
v -1 5 -2
v 3 0 2
v 3 0 -2
v 3 5 2
v 3 5 -2
v 3 16 7
v 3 16 6
v 3 17 7
v 3 17 6
v 6 5 6
v 6 5 5
v 6 5 -4
v 6 5 -5
v 6 6 7
v 6 6 6
v 6 6 5
v 6 6 4
v 6 6 -4
v 6 6 -5
v 6 6 -6
v 6 7 7
v 6 7 6
v 6 7 -5
v 6 7 -6
v 6 8 6
v 6 8 4
v 7 5 5
v 7 5 -4
v 7 6 5
v 7 6 4
v 7 6 -4
v 7 6 -5
v 7 7 7
v 7 7 6
v 7 7 4
v 7 7 -5
v 7 7 -6
v 7 8 7
v 7 8 6
v 7 8 -5
v 7 8 -6
v 8 7 4
v 8 7 -5
v 8 8 4
v 8 8 -5
v 8 19 7
v 8 19 -5
v 8 20 8
v 8 20 7
v 8 20 -5
v 8 20 -7
v 8 20 -8
v 8 21 8
v 8 21 7
v 8 21 -7
v 8 21 -8
v 9 8 7
v 9 8 -6
v 9 10 7
v 9 10 -6
v 9 18 8
v 9 18 -7
v 9 19 8
v 9 19 -7
v 9 20 7
v 9 20 -7
v 9 21 7
v 9 21 -7
v 10 10 8
v 10 10 -7
v 10 13 -1
v 10 13 -3
v 10 15 -1
v 10 15 -3
v 10 18 8
v 10 18 -7
v 11 14 -1
v 11 14 -3
v 11 15 -1
v 11 15 -3
v 13 13 -1
v 13 13 -3
v 13 14 -1
v 13 14 -3
v 14 12 -1
v 14 12 -3
v 14 13 -1
v 14 13 -3
v -9 10 8
v -9 19 8
v -9 20 8
v -9 21 8
v 8 20 8
v 8 21 8
v 9 18 8
v 9 19 8
v 10 10 8
v 10 18 8
v -9 8 7
v -9 10 7
v -8 19 7
v -8 20 7
v -7 7 7
v -7 8 7
v -6 6 7
v -6 7 7
v 6 6 7
v 6 7 7
v 7 7 7
v 7 8 7
v 8 19 7
v 8 20 7
v 8 21 7
v 9 8 7
v 9 10 7
v 9 20 7
v 9 21 7
v -8 7 6
v -8 8 6
v -8 17 6
v -8 18 6
v -7 6 6
v -7 7 6
v -7 8 6
v -7 17 6
v -7 18 6
v -6 5 6
v -6 6 6
v -6 7 6
v 3 16 6
v 3 17 6
v 4 16 6
v 4 17 6
v 6 5 6
v 6 6 6
v -7 5 5
v -7 6 5
v -6 5 5
v -6 6 5
v 6 5 5
v 6 6 5
v 7 5 5
v 7 6 5
v 6 6 4
v 6 8 4
v 7 6 4
v 7 7 4
v 8 7 4
v 8 8 4
v -3 0 2
v -3 5 2
v -1 0 2
v -1 5 2
v 1 0 2
v 1 5 2
v 3 0 2
v 3 5 2
v -14 12 -1
v -14 13 -1
v -13 13 -1
v -13 14 -1
v -11 12 -1
v -11 13 -1
v -11 14 -1
v -11 15 -1
v -9 13 -1
v -9 15 -1
v 10 13 -1
v 10 15 -1
v 11 12 -1
v 11 13 -1
v 11 14 -1
v 11 15 -1
v 13 13 -1
v 13 14 -1
v 14 12 -1
v 14 13 -1
v -8 17 7
v -8 18 7
v -7 17 7
v -7 18 7
v 3 16 7
v 3 17 7
v 4 16 7
v 4 17 7
v 6 7 6
v 6 8 6
v 7 7 6
v 7 8 6
v -3 0 -2
v -3 5 -2
v -1 0 -2
v -1 5 -2
v 1 0 -2
v 1 5 -2
v 3 0 -2
v 3 5 -2
v -14 12 -3
v -14 13 -3
v -13 13 -3
v -13 14 -3
v -11 12 -3
v -11 13 -3
v -11 14 -3
v -11 15 -3
v -9 13 -3
v -9 15 -3
v 10 13 -3
v 10 15 -3
v 11 12 -3
v 11 13 -3
v 11 14 -3
v 11 15 -3
v 13 13 -3
v 13 14 -3
v 14 12 -3
v 14 13 -3
v -7 5 -4
v -7 6 -4
v -6 5 -4
v -6 6 -4
v 6 5 -4
v 6 6 -4
v 7 5 -4
v 7 6 -4
v -8 7 -5
v -8 8 -5
v -8 19 -5
v -8 20 -5
v -7 6 -5
v -7 7 -5
v -7 8 -5
v -6 5 -5
v -6 6 -5
v -6 7 -5
v -3 10 -5
v -3 11 -5
v 3 10 -5
v 3 11 -5
v 6 5 -5
v 6 6 -5
v 6 7 -5
v 7 6 -5
v 7 7 -5
v 7 8 -5
v 8 7 -5
v 8 8 -5
v 8 19 -5
v 8 20 -5
v -9 8 -6
v -9 10 -6
v -7 7 -6
v -7 8 -6
v -6 6 -6
v -6 7 -6
v -3 10 -6
v 3 10 -6
v 6 6 -6
v 6 7 -6
v 7 7 -6
v 7 8 -6
v 9 8 -6
v 9 10 -6
v -9 10 -7
v -9 19 -7
v -9 20 -7
v -9 21 -7
v -8 20 -7
v -8 21 -7
v -4 18 -7
v -4 19 -7
v -3 10 -7
v -3 11 -7
v -3 17 -7
v -3 18 -7
v -2 16 -7
v -2 17 -7
v -1 15 -7
v -1 16 -7
v 1 15 -7
v 1 16 -7
v 3 10 -7
v 3 11 -7
v 3 16 -7
v 3 17 -7
v 4 17 -7
v 4 18 -7
v 5 18 -7
v 5 19 -7
v 8 20 -7
v 8 21 -7
v 9 18 -7
v 9 19 -7
v 9 20 -7
v 9 21 -7
v 10 10 -7
v 10 18 -7
v -8 20 -8
v -8 21 -8
v 8 20 -8
v 8 21 -8
v -3 0 2
v -1 0 2
v 1 0 2
v 3 0 2
v -3 0 -2
v -1 0 -2
v 1 0 -2
v 3 0 -2
v -6 5 6
v 6 5 6
v -7 5 5
v -6 5 5
v 6 5 5
v 7 5 5
v -3 5 2
v -1 5 2
v 1 5 2
v 3 5 2
v -3 5 -2
v -1 5 -2
v 1 5 -2
v 3 5 -2
v -7 5 -4
v -6 5 -4
v 6 5 -4
v 7 5 -4
v -6 5 -5
v 6 5 -5
v -6 6 7
v 6 6 7
v -7 6 6
v -6 6 6
v 6 6 6
v -7 6 5
v -6 6 5
v -7 6 -4
v -6 6 -4
v 6 6 -4
v 7 6 -4
v -7 6 -5
v -6 6 -5
v 6 6 -5
v 7 6 -5
v -6 6 -6
v 6 6 -6
v -7 7 7
v -6 7 7
v 6 7 7
v 7 7 7
v -8 7 6
v -7 7 6
v -6 7 6
v 6 7 6
v 7 7 6
v 7 7 4
v 8 7 4
v -8 7 -5
v -7 7 -5
v -6 7 -5
v 6 7 -5
v 7 7 -5
v 8 7 -5
v -7 7 -6
v -6 7 -6
v 6 7 -6
v 7 7 -6
v -9 8 7
v -7 8 7
v 7 8 7
v 9 8 7
v -8 8 6
v -7 8 6
v 6 8 6
v 7 8 6
v 6 8 4
v 8 8 4
v -8 8 -5
v -7 8 -5
v 7 8 -5
v 8 8 -5
v -9 8 -6
v -7 8 -6
v 7 8 -6
v 9 8 -6
v -9 10 8
v 10 10 8
v -9 10 7
v 9 10 7
v -9 10 -6
v -3 10 -6
v 3 10 -6
v 9 10 -6
v -9 10 -7
v -3 10 -7
v 3 10 -7
v 10 10 -7
v -3 11 -5
v 3 11 -5
v -3 11 -6
v 3 11 -6
v -3 11 -7
v 3 11 -7
v -14 12 -1
v -11 12 -1
v 11 12 -1
v 14 12 -1
v -14 12 -3
v -11 12 -3
v 11 12 -3
v 14 12 -3
v -11 13 -1
v -9 13 -1
v 10 13 -1
v 11 13 -1
v -11 13 -3
v -9 13 -3
v 10 13 -3
v 11 13 -3
v 3 17 7
v 4 17 7
v 3 17 6
v 4 17 6
v -8 18 7
v -7 18 7
v -8 18 6
v -7 18 6
v -9 20 8
v 8 20 8
v -8 20 7
v 8 20 7
v 9 20 7
v -8 20 -5
v 8 20 -5
v -9 20 -7
v -8 20 -7
v 8 20 -7
v 9 20 -7
v -8 20 -8
v 8 20 -8
v 6 6 5
v 7 6 5
v 6 6 4
v 7 6 4
v -3 10 -5
v 3 10 -5
v -3 10 -6
v 3 10 -6
v -14 13 -1
v -13 13 -1
v 13 13 -1
v 14 13 -1
v -14 13 -3
v -13 13 -3
v 13 13 -3
v 14 13 -3
v -13 14 -1
v -11 14 -1
v 11 14 -1
v 13 14 -1
v -13 14 -3
v -11 14 -3
v 11 14 -3
v 13 14 -3
v -11 15 -1
v -9 15 -1
v 10 15 -1
v 11 15 -1
v -11 15 -3
v -9 15 -3
v 10 15 -3
v 11 15 -3
v 3 16 7
v 4 16 7
v 3 16 6
v 4 16 6
v -8 17 7
v -7 17 7
v -8 17 6
v -7 17 6
v 9 18 8
v 10 18 8
v 9 18 -7
v 10 18 -7
v -9 19 8
v 9 19 8
v -8 19 7
v 8 19 7
v -8 19 -5
v 8 19 -5
v -8 19 -6
v -4 19 -6
v 5 19 -6
v 8 19 -6
v -9 19 -7
v -4 19 -7
v 5 19 -7
v 9 19 -7
v -9 21 8
v 8 21 8
v 8 21 7
v 9 21 7
v -9 21 -7
v -8 21 -7
v 8 21 -7
v 9 21 -7
v -8 21 -8
v 8 21 -8

# faces
f 3/1/1 2/1/1 1/1/1
f 4/1/1 2/1/1 3/1/1
f 7/5/1 6/5/1 5/5/1
f 8/5/1 6/5/1 7/5/1
f 11/5/1 10/5/1 9/5/1
f 12/5/1 10/5/1 11/5/1
f 16/4/1 14/4/1 13/4/1
f 17/4/1 14/4/1 16/4/1
f 19/5/1 16/5/1 15/5/1
f 19/5/1 18/5/1 17/5/1
f 19/5/1 17/5/1 16/5/1
f 20/5/1 18/5/1 19/5/1
f 21/5/1 19/5/1 15/5/1
f 22/5/1 18/5/1 20/5/1
f 23/5/1 21/5/1 15/5/1
f 23/5/1 22/5/1 21/5/1
f 24/5/1 18/5/1 22/5/1
f 24/5/1 22/5/1 23/5/1
f 27/1/1 26/1/1 25/1/1
f 28/1/1 26/1/1 27/1/1
f 31/4/1 30/4/1 29/4/1
f 32/4/1 30/4/1 31/4/1
f 35/1/1 34/1/1 33/1/1
f 36/1/1 34/1/1 35/1/1
f 39/1/1 38/1/1 37/1/1
f 40/1/1 38/1/1 39/1/1
f 44/4/1 42/4/1 41/4/1
f 45/4/1 42/4/1 44/4/1
f 48/4/1 44/4/1 43/4/1
f 48/4/1 46/4/1 45/4/1
f 48/4/1 45/4/1 44/4/1
f 49/4/1 46/4/1 48/4/1
f 51/4/1 48/4/1 47/4/1
f 52/4/1 48/4/1 51/4/1
f 53/4/1 50/4/1 49/4/1
f 54/4/1 50/4/1 53/4/1
f 57/2/1 56/2/1 55/2/1
f 58/2/1 56/2/1 57/2/1
f 64/4/1 60/4/1 59/4/1
f 65/4/1 60/4/1 64/4/1
f 66/4/1 62/4/1 61/4/1
f 67/4/1 62/4/1 66/4/1
f 69/4/1 64/4/1 63/4/1
f 70/4/1 64/4/1 69/4/1
f 71/4/1 68/4/1 67/4/1
f 72/4/1 68/4/1 71/4/1
f 75/3/1 74/3/1 73/3/1
f 76/3/1 74/3/1 75/3/1
f 79/3/1 78/3/1 77/3/1
f 80/3/1 78/3/1 79/3/1
f 84/5/1 82/5/1 81/5/1
f 84/5/1 83/5/1 82/5/1
f 85/5/1 83/5/1 84/5/1
f 86/5/1 83/5/1 85/5/1
f 89/2/1 88/2/1 87/2/1
f 90/2/1 88/2/1 89/2/1
f 93/1/1 92/1/1 91/1/1
f 94/1/1 92/1/1 93/1/1
f 95/1/2 96/1/2 97/1/2
f 97/1/2 96/1/2 98/1/2
f 99/5/2 100/5/2 101/5/2
f 101/5/2 100/5/2 102/5/2
f 103/4/2 104/4/2 106/4/2
f 104/5/2 105/5/2 107/5/2
f 106/4/2 104/4/2 107/4/2
f 107/5/2 105/5/2 108/5/2
f 109/3/2 110/3/2 111/3/2
f 111/3/2 110/3/2 112/3/2
f 113/3/2 114/3/2 115/3/2
f 115/3/2 114/3/2 116/3/2
f 117/2/2 118/2/2 119/2/2
f 119/2/2 118/2/2 120/2/2
f 121/4/2 122/4/2 126/4/2
f 126/4/2 122/4/2 127/4/2
f 123/4/2 124/4/2 129/4/2
f 129/4/2 124/4/2 130/4/2
f 127/4/2 128/4/2 132/4/2
f 125/4/2 126/4/2 132/4/2
f 126/4/2 127/4/2 132/4/2
f 132/4/2 128/4/2 133/4/2
f 130/4/2 131/4/2 134/4/2
f 134/4/2 131/4/2 135/4/2
f 133/4/2 128/4/2 136/4/2
f 136/4/2 128/4/2 137/4/2
f 138/4/2 139/4/2 140/4/2
f 140/4/2 139/4/2 141/4/2
f 141/4/2 139/4/2 142/4/2
f 142/4/2 143/4/2 146/4/2
f 141/4/2 142/4/2 146/4/2
f 146/4/2 143/4/2 147/4/2
f 144/4/2 145/4/2 149/4/2
f 149/4/2 145/4/2 150/4/2
f 147/4/2 148/4/2 151/4/2
f 151/4/2 148/4/2 152/4/2
f 153/4/2 154/4/2 155/4/2
f 155/4/2 154/4/2 156/4/2
f 157/1/2 158/1/2 160/1/2
f 160/1/2 158/1/2 161/1/2
f 159/1/2 160/1/2 164/1/2
f 164/1/2 160/1/2 165/1/2
f 162/1/2 163/1/2 166/1/2
f 166/1/2 163/1/2 167/1/2
f 168/4/2 169/4/2 170/4/2
f 170/4/2 169/4/2 171/4/2
f 172/5/2 173/5/2 174/5/2
f 174/5/2 173/5/2 175/5/2
f 176/1/2 177/1/2 178/1/2
f 178/1/2 177/1/2 179/1/2
f 180/5/2 181/5/2 182/5/2
f 182/5/2 181/5/2 183/5/2
f 180/5/2 182/5/2 184/5/2
f 183/5/2 181/5/2 185/5/2
f 180/5/2 184/5/2 186/5/2
f 184/5/2 185/5/2 186/5/2
f 185/5/2 181/5/2 187/5/2
f 186/5/2 185/5/2 187/5/2
f 188/5/2 189/5/2 190/5/2
f 190/5/2 189/5/2 191/5/2
f 192/5/2 193/5/2 194/5/2
f 194/5/2 193/5/2 195/5/2
f 196/1/2 197/1/2 198/1/2
f 198/1/2 197/1/2 199/1/2
f 204/1/3 203/1/3 202/1/3
f 205/1/3 203/1/3 204/1/3
f 206/5/3 201/5/3 200/5/3
f 207/5/3 201/5/3 206/5/3
f 208/5/3 206/5/3 200/5/3
f 209/5/3 206/5/3 208/5/3
f 215/4/3 211/4/3 210/4/3
f 217/4/3 215/4/3 214/4/3
f 218/4/3 217/4/3 216/4/3
f 219/4/3 215/4/3 217/4/3
f 219/4/3 217/4/3 218/4/3
f 220/4/3 215/4/3 219/4/3
f 221/4/3 211/4/3 215/4/3
f 221/4/3 215/4/3 220/4/3
f 222/1/3 213/1/3 212/1/3
f 223/1/3 213/1/3 222/1/3
f 225/4/3 211/4/3 221/4/3
f 226/4/3 211/4/3 225/4/3
f 227/1/3 224/1/3 223/1/3
f 228/1/3 224/1/3 227/1/3
f 234/4/3 230/4/3 229/4/3
f 235/4/3 230/4/3 234/4/3
f 236/2/3 232/2/3 231/2/3
f 237/2/3 232/2/3 236/2/3
f 239/4/3 234/4/3 233/4/3
f 240/4/3 234/4/3 239/4/3
f 243/2/3 242/2/3 241/2/3
f 244/2/3 242/2/3 243/2/3
f 245/4/3 239/4/3 238/4/3
f 246/4/3 239/4/3 245/4/3
f 249/4/3 248/4/3 247/4/3
f 250/4/3 248/4/3 249/4/3
f 253/4/3 252/4/3 251/4/3
f 254/4/3 252/4/3 253/4/3
f 257/4/3 256/4/3 255/4/3
f 258/4/3 256/4/3 257/4/3
f 259/4/3 256/4/3 258/4/3
f 260/4/3 256/4/3 259/4/3
f 263/3/3 262/3/3 261/3/3
f 264/3/3 262/3/3 263/3/3
f 267/3/3 266/3/3 265/3/3
f 268/3/3 266/3/3 267/3/3
f 271/1/3 270/1/3 269/1/3
f 273/1/3 271/1/3 269/1/3
f 274/5/3 272/5/3 271/5/3
f 274/1/3 271/1/3 273/1/3
f 275/5/3 272/5/3 274/5/3
f 277/5/3 276/5/3 275/5/3
f 277/5/3 275/5/3 274/5/3
f 278/5/3 276/5/3 277/5/3
f 282/5/3 280/5/3 279/5/3
f 283/5/3 280/5/3 282/5/3
f 284/5/3 280/5/3 283/5/3
f 285/1/3 282/1/3 281/1/3
f 285/5/3 283/5/3 282/5/3
f 286/5/3 283/5/3 285/5/3
f 287/1/3 285/1/3 281/1/3
f 288/1/3 285/1/3 287/1/3
f 289/5/4 290/5/4 291/5/4
f 291/5/4 290/5/4 292/5/4
f 293/5/4 294/5/4 295/5/4
f 295/5/4 294/5/4 296/5/4
f 297/4/4 298/4/4 299/4/4
f 299/4/4 298/4/4 300/4/4
f 301/3/4 302/3/4 303/3/4
f 303/3/4 302/3/4 304/3/4
f 305/3/4 306/3/4 307/3/4
f 307/3/4 306/3/4 308/3/4
f 309/1/4 310/1/4 311/1/4
f 309/1/4 311/1/4 313/1/4
f 311/5/4 312/5/4 314/5/4
f 313/1/4 311/1/4 314/1/4
f 314/5/4 312/5/4 315/5/4
f 315/5/4 316/5/4 317/5/4
f 314/5/4 315/5/4 317/5/4
f 317/5/4 316/5/4 318/5/4
f 319/5/4 320/5/4 322/5/4
f 322/5/4 320/5/4 323/5/4
f 323/5/4 320/5/4 324/5/4
f 321/1/4 322/1/4 325/1/4
f 322/5/4 323/5/4 325/5/4
f 325/5/4 323/5/4 326/5/4
f 321/1/4 325/1/4 327/1/4
f 327/1/4 325/1/4 328/1/4
f 329/4/4 330/4/4 331/4/4
f 331/4/4 330/4/4 332/4/4
f 333/4/4 334/4/4 335/4/4
f 335/4/4 334/4/4 336/4/4
f 337/4/4 338/4/4 342/4/4
f 342/4/4 338/4/4 343/4/4
f 341/4/4 342/4/4 345/4/4
f 345/4/4 342/4/4 346/4/4
f 347/5/4 348/5/4 349/5/4
f 349/5/4 348/5/4 350/5/4
f 344/4/4 345/4/4 351/4/4
f 351/4/4 345/4/4 352/4/4
f 352/4/4 353/4/4 354/4/4
f 354/4/4 353/4/4 355/4/4
f 355/4/4 356/4/4 357/4/4
f 357/4/4 356/4/4 358/4/4
f 339/1/4 340/1/4 359/1/4
f 359/1/4 340/1/4 360/1/4
f 361/4/4 362/4/4 364/4/4
f 363/4/4 364/4/4 366/4/4
f 364/4/4 362/4/4 367/4/4
f 365/4/4 366/4/4 367/4/4
f 366/4/4 364/4/4 367/4/4
f 365/4/4 367/4/4 368/4/4
f 365/4/4 368/4/4 369/4/4
f 369/4/4 368/4/4 370/4/4
f 370/4/4 368/4/4 371/4/4
f 371/4/4 368/4/4 372/4/4
f 372/4/4 368/4/4 373/4/4
f 373/4/4 368/4/4 374/4/4
f 377/1/4 378/1/4 379/1/4
f 379/1/4 378/1/4 380/1/4
f 375/5/4 376/5/4 381/5/4
f 381/5/4 376/5/4 382/5/4
f 375/5/4 381/5/4 383/5/4
f 383/5/4 381/5/4 384/5/4
f 384/5/4 381/5/4 385/5/4
f 381/1/4 382/1/4 386/1/4
f 385/5/4 381/5/4 386/5/4
f 384/5/4 385/5/4 387/5/4
f 385/1/4 386/1/4 388/1/4
f 387/5/4 385/5/4 388/5/4
f 384/5/4 387/5/4 389/5/4
f 387/1/4 388/1/4 390/1/4
f 389/5/4 387/5/4 390/5/4
f 384/5/4 389/5/4 391/5/4
f 389/1/4 390/1/4 391/1/4
f 390/1/4 388/1/4 392/1/4
f 391/1/4 390/1/4 392/1/4
f 384/5/4 391/5/4 394/5/4
f 391/5/4 392/5/4 394/5/4
f 392/1/4 388/1/4 395/1/4
f 394/5/4 392/5/4 395/5/4
f 388/1/4 386/1/4 396/1/4
f 395/1/4 388/1/4 396/1/4
f 394/5/4 395/5/4 397/5/4
f 396/1/4 386/1/4 397/1/4
f 395/5/4 396/5/4 397/5/4
f 393/5/4 394/5/4 397/5/4
f 386/1/4 382/1/4 398/1/4
f 397/1/4 386/1/4 398/1/4
f 397/5/4 398/5/4 399/5/4
f 398/1/4 382/1/4 399/1/4
f 399/1/4 382/1/4 400/1/4
f 399/5/4 400/5/4 403/5/4
f 397/5/4 399/5/4 403/5/4
f 403/5/4 400/5/4 404/5/4
f 401/1/4 402/1/4 405/1/4
f 405/1/4 402/1/4 406/1/4
f 393/5/4 397/5/4 407/5/4
f 397/5/4 403/5/4 407/5/4
f 407/5/4 403/5/4 408/5/4
f 409/1/4 410/1/4 411/1/4
f 411/1/4 410/1/4 412/1/4
f 417/3/5 414/3/5 413/3/5
f 418/3/5 414/3/5 417/3/5
f 419/3/5 416/3/5 415/3/5
f 420/3/5 416/3/5 419/3/5
f 424/4/5 422/4/5 421/4/5
f 425/4/5 422/4/5 424/4/5
f 427/4/5 424/4/5 423/4/5
f 427/4/5 426/4/5 425/4/5
f 427/4/5 425/4/5 424/4/5
f 428/4/5 426/4/5 427/4/5
f 429/4/5 426/4/5 428/4/5
f 430/4/5 426/4/5 429/4/5
f 431/4/5 427/4/5 423/4/5
f 432/4/5 429/4/5 428/4/5
f 433/4/5 429/4/5 432/4/5
f 434/4/5 426/4/5 430/4/5
f 435/4/5 433/4/5 432/4/5
f 435/4/5 434/4/5 433/4/5
f 435/4/5 431/4/5 423/4/5
f 435/4/5 432/4/5 431/4/5
f 436/4/5 434/4/5 435/4/5
f 437/4/5 426/4/5 434/4/5
f 437/4/5 434/4/5 436/4/5
f 438/4/5 426/4/5 437/4/5
f 439/4/5 437/4/5 436/4/5
f 440/4/5 437/4/5 439/4/5
f 444/4/5 442/4/5 441/4/5
f 445/4/5 442/4/5 444/4/5
f 446/4/5 444/4/5 443/4/5
f 447/4/5 444/4/5 446/4/5
f 452/4/5 449/4/5 448/4/5
f 453/4/5 449/4/5 452/4/5
f 454/4/5 451/4/5 450/4/5
f 455/4/5 451/4/5 454/4/5
f 456/4/5 454/4/5 453/4/5
f 457/4/5 454/4/5 456/4/5
f 463/4/5 459/4/5 458/4/5
f 464/4/5 459/4/5 463/4/5
f 465/4/5 461/4/5 460/4/5
f 466/4/5 461/4/5 465/4/5
f 469/4/5 463/4/5 462/4/5
f 470/4/5 463/4/5 469/4/5
f 473/4/5 468/4/5 467/4/5
f 474/4/5 468/4/5 473/4/5
f 475/4/5 471/4/5 470/4/5
f 476/4/5 471/4/5 475/4/5
f 477/4/5 473/4/5 472/4/5
f 478/4/5 473/4/5 477/4/5
f 483/4/5 480/4/5 479/4/5
f 484/4/5 480/4/5 483/4/5
f 486/4/5 482/4/5 481/4/5
f 487/4/5 486/4/5 485/4/5
f 488/4/5 482/4/5 486/4/5
f 488/4/5 486/4/5 487/4/5
f 489/4/5 483/4/5 479/4/5
f 492/4/5 482/4/5 488/4/5
f 493/4/5 490/4/5 489/4/5
f 493/4/5 489/4/5 479/4/5
f 494/4/5 490/4/5 493/4/5
f 495/4/5 492/4/5 491/4/5
f 496/4/5 482/4/5 492/4/5
f 496/4/5 492/4/5 495/4/5
f 499/5/5 498/5/5 497/5/5
f 500/5/5 498/5/5 499/5/5
f 504/5/5 498/5/5 500/5/5
f 505/5/5 502/5/5 501/5/5
f 506/5/5 502/5/5 505/5/5
f 507/5/5 504/5/5 503/5/5
f 508/5/5 498/5/5 504/5/5
f 508/5/5 504/5/5 507/5/5
f 511/4/5 510/4/5 509/4/5
f 512/4/5 510/4/5 511/4/5
f 513/5/5 512/5/5 511/5/5
f 514/5/5 512/5/5 513/5/5
f 519/1/5 516/1/5 515/1/5
f 520/1/5 516/1/5 519/1/5
f 521/1/5 518/1/5 517/1/5
f 522/1/5 518/1/5 521/1/5
f 527/5/5 524/5/5 523/5/5
f 528/5/5 524/5/5 527/5/5
f 529/5/5 526/5/5 525/5/5
f 530/5/5 526/5/5 529/5/5
f 533/2/5 532/2/5 531/2/5
f 534/2/5 532/2/5 533/2/5
f 537/2/5 536/2/5 535/2/5
f 538/2/5 536/2/5 537/2/5
f 541/1/5 540/1/5 539/1/5
f 542/1/5 540/1/5 541/1/5
f 544/1/5 541/1/5 539/1/5
f 545/1/5 543/1/5 542/1/5
f 546/1/5 544/1/5 539/1/5
f 546/1/5 545/1/5 544/1/5
f 547/1/5 545/1/5 546/1/5
f 548/1/5 543/1/5 545/1/5
f 548/1/5 545/1/5 547/1/5
f 549/1/5 543/1/5 548/1/5
f 550/1/5 548/1/5 547/1/5
f 551/1/5 548/1/5 550/1/5
f 552/4/6 553/4/6 554/4/6
f 554/4/6 553/4/6 555/4/6
f 556/4/6 557/4/6 558/4/6
f 558/4/6 557/4/6 559/4/6
f 560/1/6 561/1/6 564/1/6
f 564/1/6 561/1/6 565/1/6
f 562/1/6 563/1/6 566/1/6
f 566/1/6 563/1/6 567/1/6
f 568/5/6 569/5/6 572/5/6
f 572/5/6 569/5/6 573/5/6
f 570/5/6 571/5/6 574/5/6
f 574/5/6 571/5/6 575/5/6
f 576/5/6 577/5/6 580/5/6
f 580/5/6 577/5/6 581/5/6
f 578/5/6 579/5/6 582/5/6
f 582/5/6 579/5/6 583/5/6
f 584/2/6 585/2/6 586/2/6
f 586/2/6 585/2/6 587/2/6
f 588/2/6 589/2/6 590/2/6
f 590/2/6 589/2/6 591/2/6
f 592/5/6 593/5/6 594/5/6
f 594/5/6 593/5/6 595/5/6
f 596/5/6 597/5/6 598/5/6
f 598/5/6 597/5/6 599/5/6
f 596/5/6 598/5/6 600/5/6
f 599/5/6 597/5/6 601/5/6
f 596/5/6 600/5/6 602/5/6
f 600/1/6 601/1/6 602/1/6
f 602/1/6 601/1/6 603/1/6
f 603/1/6 601/1/6 604/1/6
f 601/5/6 597/5/6 605/5/6
f 604/1/6 601/1/6 605/1/6
f 596/5/6 602/5/6 606/5/6
f 602/5/6 603/5/6 606/5/6
f 603/1/6 604/1/6 607/1/6
f 606/5/6 603/5/6 607/5/6
f 604/5/6 605/5/6 608/5/6
f 607/1/6 604/1/6 608/1/6
f 605/5/6 597/5/6 609/5/6
f 608/5/6 605/5/6 609/5/6
f 610/1/6 611/1/6 612/1/6
f 610/1/6 612/1/6 614/1/6
f 612/1/6 613/1/6 614/1/6
f 614/1/6 613/1/6 615/1/6
f 615/1/6 613/1/6 616/1/6
f 616/1/6 613/1/6 617/1/6
f 615/1/6 616/1/6 618/1/6
f 618/1/6 616/1/6 619/1/6
