# MagicaVoxel @ Ephtracy

# material
mtllib light-train.mtl
usemtl palette

# normals
vn -1 0 0
vn 1 0 0
vn 0 0 1
vn 0 0 -1
vn 0 -1 0
vn 0 1 0

# texcoords
vt 0.970703 0.5
vt 0.974609 0.5
vt 0.978516 0.5
vt 0.982422 0.5

# verts
v -0.5 0 0.5
v -0.5 0 -0.5
v -0.5 2 0.5
v -0.5 2 -0.5
v -0.5 3 0.5
v -0.5 3 -0.5
v -0.5 5 0.5
v -0.5 5 -0.5
v -0.5 6 0.5
v -0.5 6 -0.5
v -0.5 8 0.5
v -0.5 8 -0.5
v -0.5 9 0.5
v -0.5 9 -0.5
v -0.5 11 0.5
v -0.5 11 -0.5
v -0.5 12 0.5
v -0.5 12 -0.5
v -0.5 14 0.5
v -0.5 14 -0.5
v -0.5 15 0.5
v -0.5 15 -0.5
v 0.5 11 2.5
v 0.5 11 0.5
v 0.5 11 -0.5
v 0.5 11 -2.5
v 0.5 12 0.5
v 0.5 12 -0.5
v 0.5 13 2.5
v 0.5 13 0.5
v 0.5 13 -0.5
v 0.5 13 -2.5
v 0.5 0 0.5
v 0.5 0 -0.5
v 0.5 2 0.5
v 0.5 2 -0.5
v 0.5 3 0.5
v 0.5 3 -0.5
v 0.5 5 0.5
v 0.5 5 -0.5
v 0.5 6 0.5
v 0.5 6 -0.5
v 0.5 8 0.5
v 0.5 8 -0.5
v 0.5 9 0.5
v 0.5 9 -0.5
v 0.5 11 0.5
v 0.5 11 -0.5
v 0.5 13 0.5
v 0.5 13 -0.5
v 0.5 14 0.5
v 0.5 14 -0.5
v 0.5 15 0.5
v 0.5 15 -0.5
v 1.5 11 2.5
v 1.5 11 1.5
v 1.5 11 0.5
v 1.5 11 -0.5
v 1.5 11 -1.5
v 1.5 11 -2.5
v 1.5 12 1.5
v 1.5 12 0.5
v 1.5 12 -0.5
v 1.5 12 -1.5
v 1.5 13 2.5
v 1.5 13 1.5
v 1.5 13 0.5
v 1.5 13 -0.5
v 1.5 13 -1.5
v 1.5 13 -2.5
v 2.5 11 1.5
v 2.5 11 0.5
v 2.5 11 -0.5
v 2.5 11 -1.5
v 2.5 12 1.5
v 2.5 12 0.5
v 2.5 12 -0.5
v 2.5 12 -1.5
v 2.5 13 1.5
v 2.5 13 0.5
v 2.5 13 -0.5
v 2.5 13 -1.5
v 0.5 11 2.5
v 0.5 13 2.5
v 1.5 11 2.5
v 1.5 13 2.5
v 1.5 11 1.5
v 1.5 12 1.5
v 1.5 13 1.5
v 2.5 11 1.5
v 2.5 12 1.5
v 2.5 13 1.5
v -0.5 0 0.5
v -0.5 2 0.5
v -0.5 3 0.5
v -0.5 5 0.5
v -0.5 6 0.5
v -0.5 8 0.5
v -0.5 9 0.5
v -0.5 11 0.5
v -0.5 12 0.5
v -0.5 14 0.5
v -0.5 15 0.5
v 0.5 0 0.5
v 0.5 2 0.5
v 0.5 3 0.5
v 0.5 5 0.5
v 0.5 6 0.5
v 0.5 8 0.5
v 0.5 9 0.5
v 0.5 11 0.5
v 0.5 12 0.5
v 0.5 13 0.5
v 0.5 14 0.5
v 0.5 15 0.5
v 1.5 11 -0.5
v 1.5 12 -0.5
v 1.5 13 -0.5
v 2.5 11 -0.5
v 2.5 12 -0.5
v 2.5 13 -0.5
v 1.5 11 0.5
v 1.5 12 0.5
v 1.5 13 0.5
v 2.5 11 0.5
v 2.5 12 0.5
v 2.5 13 0.5
v -0.5 0 -0.5
v -0.5 2 -0.5
v -0.5 3 -0.5
v -0.5 5 -0.5
v -0.5 6 -0.5
v -0.5 8 -0.5
v -0.5 9 -0.5
v -0.5 11 -0.5
v -0.5 12 -0.5
v -0.5 14 -0.5
v -0.5 15 -0.5
v 0.5 0 -0.5
v 0.5 2 -0.5
v 0.5 3 -0.5
v 0.5 5 -0.5
v 0.5 6 -0.5
v 0.5 8 -0.5
v 0.5 9 -0.5
v 0.5 11 -0.5
v 0.5 12 -0.5
v 0.5 13 -0.5
v 0.5 14 -0.5
v 0.5 15 -0.5
v 1.5 11 -1.5
v 1.5 12 -1.5
v 1.5 13 -1.5
v 2.5 11 -1.5
v 2.5 12 -1.5
v 2.5 13 -1.5
v 0.5 11 -2.5
v 0.5 13 -2.5
v 1.5 11 -2.5
v 1.5 13 -2.5
v -0.5 0 0.5
v 0.5 0 0.5
v -0.5 0 -0.5
v 0.5 0 -0.5
v 0.5 11 2.5
v 1.5 11 2.5
v 1.5 11 1.5
v 2.5 11 1.5
v 0.5 11 0.5
v 1.5 11 0.5
v 2.5 11 0.5
v 0.5 11 -0.5
v 1.5 11 -0.5
v 2.5 11 -0.5
v 1.5 11 -1.5
v 2.5 11 -1.5
v 0.5 11 -2.5
v 1.5 11 -2.5
v 0.5 13 2.5
v 1.5 13 2.5
v 1.5 13 1.5
v 2.5 13 1.5
v 0.5 13 0.5
v 1.5 13 0.5
v 2.5 13 0.5
v 0.5 13 -0.5
v 1.5 13 -0.5
v 2.5 13 -0.5
v 1.5 13 -1.5
v 2.5 13 -1.5
v 0.5 13 -2.5
v 1.5 13 -2.5
v -0.5 15 0.5
v 0.5 15 0.5
v -0.5 15 -0.5
v 0.5 15 -0.5

# faces
f 3/2/1 2/2/1 1/2/1
f 4/2/1 2/2/1 3/2/1
f 5/1/1 4/1/1 3/1/1
f 6/1/1 4/1/1 5/1/1
f 7/2/1 6/2/1 5/2/1
f 8/2/1 6/2/1 7/2/1
f 9/1/1 8/1/1 7/1/1
f 10/1/1 8/1/1 9/1/1
f 11/2/1 10/2/1 9/2/1
f 12/2/1 10/2/1 11/2/1
f 13/1/1 12/1/1 11/1/1
f 14/1/1 12/1/1 13/1/1
f 15/2/1 14/2/1 13/2/1
f 16/2/1 14/2/1 15/2/1
f 17/1/1 16/1/1 15/1/1
f 18/1/1 16/1/1 17/1/1
f 19/2/1 18/2/1 17/2/1
f 20/2/1 18/2/1 19/2/1
f 21/1/1 20/1/1 19/1/1
f 22/1/1 20/1/1 21/1/1
f 27/3/1 24/3/1 23/3/1
f 28/3/1 26/3/1 25/3/1
f 29/3/1 27/3/1 23/3/1
f 30/3/1 27/3/1 29/3/1
f 31/3/1 26/3/1 28/3/1
f 32/3/1 26/3/1 31/3/1
f 33/2/2 34/2/2 35/2/2
f 35/2/2 34/2/2 36/2/2
f 35/1/2 36/1/2 37/1/2
f 37/1/2 36/1/2 38/1/2
f 37/2/2 38/2/2 39/2/2
f 39/2/2 38/2/2 40/2/2
f 39/1/2 40/1/2 41/1/2
f 41/1/2 40/1/2 42/1/2
f 41/2/2 42/2/2 43/2/2
f 43/2/2 42/2/2 44/2/2
f 43/1/2 44/1/2 45/1/2
f 45/1/2 44/1/2 46/1/2
f 45/2/2 46/2/2 47/2/2
f 47/2/2 46/2/2 48/2/2
f 49/2/2 50/2/2 51/2/2
f 51/2/2 50/2/2 52/2/2
f 51/1/2 52/1/2 53/1/2
f 53/1/2 52/1/2 54/1/2
f 55/3/2 56/3/2 61/3/2
f 57/3/2 58/3/2 62/3/2
f 62/3/2 58/3/2 63/3/2
f 59/3/2 60/3/2 64/3/2
f 55/3/2 61/3/2 65/3/2
f 65/3/2 61/3/2 66/3/2
f 62/3/2 63/3/2 67/3/2
f 67/3/2 63/3/2 68/3/2
f 64/3/2 60/3/2 69/3/2
f 69/3/2 60/3/2 70/3/2
f 71/4/2 72/4/2 75/4/2
f 75/4/2 72/4/2 76/4/2
f 73/4/2 74/4/2 77/4/2
f 77/4/2 74/4/2 78/4/2
f 75/3/2 76/3/2 79/3/2
f 79/3/2 76/3/2 80/3/2
f 77/3/2 78/3/2 81/3/2
f 81/3/2 78/3/2 82/3/2
f 85/3/3 84/3/3 83/3/3
f 86/3/3 84/3/3 85/3/3
f 90/4/3 88/4/3 87/4/3
f 91/3/3 89/3/3 88/3/3
f 91/4/3 88/4/3 90/4/3
f 92/3/3 89/3/3 91/3/3
f 104/2/3 94/2/3 93/2/3
f 105/1/3 95/1/3 94/1/3
f 105/2/3 94/2/3 104/2/3
f 106/2/3 96/2/3 95/2/3
f 106/1/3 95/1/3 105/1/3
f 107/1/3 97/1/3 96/1/3
f 107/2/3 96/2/3 106/2/3
f 108/2/3 98/2/3 97/2/3
f 108/1/3 97/1/3 107/1/3
f 109/1/3 99/1/3 98/1/3
f 109/2/3 98/2/3 108/2/3
f 110/2/3 100/2/3 99/2/3
f 110/1/3 99/1/3 109/1/3
f 111/1/3 101/1/3 100/1/3
f 111/2/3 100/2/3 110/2/3
f 112/2/3 102/2/3 101/2/3
f 112/1/3 101/1/3 111/1/3
f 113/2/3 102/2/3 112/2/3
f 114/1/3 103/1/3 102/1/3
f 114/2/3 102/2/3 113/2/3
f 115/1/3 103/1/3 114/1/3
f 119/4/3 117/4/3 116/4/3
f 120/3/3 118/3/3 117/3/3
f 120/4/3 117/4/3 119/4/3
f 121/3/3 118/3/3 120/3/3
f 122/4/4 123/4/4 125/4/4
f 123/3/4 124/3/4 126/3/4
f 125/4/4 123/4/4 126/4/4
f 126/3/4 124/3/4 127/3/4
f 128/2/4 129/2/4 139/2/4
f 129/1/4 130/1/4 140/1/4
f 139/2/4 129/2/4 140/2/4
f 130/2/4 131/2/4 141/2/4
f 140/1/4 130/1/4 141/1/4
f 131/1/4 132/1/4 142/1/4
f 141/2/4 131/2/4 142/2/4
f 132/2/4 133/2/4 143/2/4
f 142/1/4 132/1/4 143/1/4
f 133/1/4 134/1/4 144/1/4
f 143/2/4 133/2/4 144/2/4
f 134/2/4 135/2/4 145/2/4
f 144/1/4 134/1/4 145/1/4
f 135/1/4 136/1/4 146/1/4
f 145/2/4 135/2/4 146/2/4
f 136/2/4 137/2/4 147/2/4
f 146/1/4 136/1/4 147/1/4
f 147/2/4 137/2/4 148/2/4
f 137/1/4 138/1/4 149/1/4
f 148/2/4 137/2/4 149/2/4
f 149/1/4 138/1/4 150/1/4
f 151/4/4 152/4/4 154/4/4
f 152/3/4 153/3/4 155/3/4
f 154/4/4 152/4/4 155/4/4
f 155/3/4 153/3/4 156/3/4
f 157/3/4 158/3/4 159/3/4
f 159/3/4 158/3/4 160/3/4
f 163/2/5 162/2/5 161/2/5
f 164/2/5 162/2/5 163/2/5
f 167/3/5 166/3/5 165/3/5
f 169/3/5 167/3/5 165/3/5
f 170/4/5 168/4/5 167/4/5
f 170/3/5 167/3/5 169/3/5
f 171/4/5 168/4/5 170/4/5
f 172/3/5 170/3/5 169/3/5
f 173/3/5 170/3/5 172/3/5
f 175/3/5 173/3/5 172/3/5
f 175/4/5 174/4/5 173/4/5
f 176/4/5 174/4/5 175/4/5
f 177/3/5 175/3/5 172/3/5
f 178/3/5 175/3/5 177/3/5
f 179/3/6 180/3/6 181/3/6
f 179/3/6 181/3/6 183/3/6
f 181/3/6 182/3/6 183/3/6
f 183/3/6 182/3/6 184/3/6
f 184/3/6 182/3/6 185/3/6
f 183/3/6 184/3/6 186/3/6
f 186/3/6 184/3/6 187/3/6
f 186/3/6 187/3/6 189/3/6
f 187/3/6 188/3/6 189/3/6
f 189/3/6 188/3/6 190/3/6
f 186/3/6 189/3/6 191/3/6
f 191/3/6 189/3/6 192/3/6
f 193/1/6 194/1/6 195/1/6
f 195/1/6 194/1/6 196/1/6
