# MagicaVoxel @ Ephtracy

# material
mtllib boat.mtl
usemtl palette

# normals
vn -1 0 0
vn 1 0 0
vn 0 0 1
vn 0 0 -1
vn 0 -1 0
vn 0 1 0

# texcoords
vt 0.955078 0.5
vt 0.958984 0.5
vt 0.962891 0.5
vt 0.970703 0.5
vt 0.978516 0.5
vt 0.994141 0.5

# verts
v -4.5 0 17
v -4.5 0 16
v -4.5 0 -16
v -4.5 0 -17
v -4.5 4 17
v -4.5 4 16
v -4.5 4 -16
v -4.5 4 -17
v 3.5 1 17
v 3.5 1 16
v 3.5 1 14
v 3.5 1 -13
v 3.5 1 -16
v 3.5 1 -17
v 3.5 3 17
v 3.5 3 16
v 3.5 3 14
v 3.5 3 -13
v 3.5 3 -14
v 3.5 3 -15
v 3.5 3 -16
v 3.5 3 -17
v -3.5 1 17
v -3.5 1 16
v -3.5 1 14
v -3.5 3 17
v -3.5 3 16
v -3.5 3 14
v -2.5 1 -13
v -2.5 1 -16
v -2.5 1 -17
v -2.5 3 -13
v -2.5 3 -16
v -2.5 3 -17
v 4.5 0 17
v 4.5 0 16
v 4.5 0 -16
v 4.5 0 -17
v 4.5 4 17
v 4.5 4 16
v 4.5 4 -16
v 4.5 4 -17
v -4.5 0 17
v -4.5 4 17
v -3.5 1 17
v -3.5 3 17
v 3.5 1 17
v 3.5 3 17
v 4.5 0 17
v 4.5 4 17
v -3.5 1 14
v -3.5 3 14
v -2.5 3 14
v 2.5 3 14
v 3.5 1 14
v 3.5 3 14
v -2.5 1 -13
v -2.5 3 -13
v -0.5 3 -13
v 1.5 3 -13
v 3.5 1 -13
v 3.5 3 -13
v -4.5 0 -17
v -4.5 4 -17
v -3.5 1 -17
v -3.5 3 -17
v -2.5 1 -17
v -2.5 3 -17
v 3.5 1 -17
v 3.5 3 -17
v 4.5 0 -17
v 4.5 4 -17
v -4.5 0 17
v 4.5 0 17
v -4.5 0 16
v 4.5 0 16
v -2.5 0 -0
v 3.5 0 -0
v -2.5 0 -10
v 3.5 0 -10
v -4.5 0 -16
v 4.5 0 -16
v -4.5 0 -17
v 4.5 0 -17
v -3.5 3 17
v 3.5 3 17
v -3.5 3 16
v 3.5 3 16
v -2.5 3 15
v 2.5 3 15
v -3.5 3 14
v -2.5 3 14
v 2.5 3 14
v 3.5 3 14
v -2.5 3 -13
v -0.5 3 -13
v 1.5 3 -13
v 3.5 3 -13
v -0.5 3 -14
v 1.5 3 -14
v 3.5 3 -14
v 1.5 3 -15
v 3.5 3 -15
v -2.5 3 -16
v 3.5 3 -16
v -2.5 3 -17
v 3.5 3 -17
v -3.5 1 17
v 3.5 1 17
v -3.5 1 16
v 3.5 1 16
v -3.5 1 14
v 3.5 1 14
v -2.5 1 -13
v 3.5 1 -13
v -2.5 1 -16
v 3.5 1 -16
v -2.5 1 -17
v 3.5 1 -17
v -4.5 4 17
v 4.5 4 17
v -4.5 4 16
v 4.5 4 16
v -2.5 4 15
v 2.5 4 15
v -3.5 4 14
v -2.5 4 14
v 2.5 4 14
v 3.5 4 14
v -2.5 4 13
v -1.5 4 13
v -0.5 4 13
v 1.5 4 13
v 0.5 4 12
v 1.5 4 12
v 2.5 4 12
v -2.5 4 11
v -1.5 4 11
v -0.5 4 11
v 0.5 4 11
v 1.5 4 11
v 2.5 4 11
v -1.5 4 10
v 1.5 4 10
v -2.5 4 9
v 0.5 4 9
v -1.5 4 8
v -0.5 4 8
v -1.5 4 7
v -0.5 4 7
v 0.5 4 7
v 2.5 4 7
v -2.5 4 6
v 2.5 4 6
v -2.5 4 5
v 0.5 4 5
v -1.5 4 4
v 0.5 4 4
v -1.5 4 3
v 0.5 4 3
v -2.5 4 2
v 0.5 4 2
v 1.5 4 2
v 2.5 4 2
v -2.5 4 1
v 1.5 4 1
v -2.5 4 -0
v 1.5 4 -0
v -3.5 4 -1
v -2.5 4 -1
v 1.5 4 -1
v 2.5 4 -1
v 3.5 4 -1
v -2.5 4 -2
v 2.5 4 -2
v -3.5 4 -3
v 0.5 4 -3
v -2.5 4 -4
v 0.5 4 -4
v -2.5 4 -5
v 0.5 4 -5
v -3.5 4 -6
v 0.5 4 -6
v -3.5 4 -7
v 0.5 4 -7
v -2.5 4 -8
v -0.5 4 -8
v -2.5 4 -9
v -0.5 4 -9
v -3.5 4 -10
v 0.5 4 -10
v 1.5 4 -10
v 3.5 4 -10
v -0.5 4 -11
v 1.5 4 -11
v 3.5 4 -11
v -3.5 4 -12
v -0.5 4 -12
v 0.5 4 -12
v 1.5 4 -12
v -3.5 4 -13
v -0.5 4 -13
v 0.5 4 -13
v 1.5 4 -13
v -0.5 4 -14
v 1.5 4 -14
v 3.5 4 -14
v 1.5 4 -15
v 3.5 4 -15
v -4.5 4 -16
v 4.5 4 -16
v -4.5 4 -17
v 4.5 4 -17

# faces
f 5/6/1 2/6/1 1/6/1
f 6/2/1 3/2/1 2/2/1
f 6/6/1 2/6/1 5/6/1
f 7/6/1 4/6/1 3/6/1
f 7/2/1 3/2/1 6/2/1
f 8/6/1 4/6/1 7/6/1
f 15/6/1 10/6/1 9/6/1
f 16/2/1 11/2/1 10/2/1
f 16/6/1 10/6/1 15/6/1
f 17/2/1 11/2/1 16/2/1
f 18/2/1 13/2/1 12/2/1
f 19/2/1 13/2/1 18/2/1
f 20/2/1 13/2/1 19/2/1
f 21/6/1 14/6/1 13/6/1
f 21/2/1 13/2/1 20/2/1
f 22/6/1 14/6/1 21/6/1
f 23/6/2 24/6/2 26/6/2
f 24/2/2 25/2/2 27/2/2
f 26/6/2 24/6/2 27/6/2
f 27/2/2 25/2/2 28/2/2
f 29/2/2 30/2/2 32/2/2
f 30/2/2 31/2/2 32/2/2
f 32/2/2 31/2/2 33/2/2
f 33/2/2 31/2/2 34/2/2
f 35/6/2 36/6/2 39/6/2
f 36/2/2 37/2/2 40/2/2
f 39/6/2 36/6/2 40/6/2
f 37/6/2 38/6/2 41/6/2
f 40/2/2 37/2/2 41/2/2
f 41/6/2 38/6/2 42/6/2
f 45/6/3 44/6/3 43/6/3
f 46/6/3 44/6/3 45/6/3
f 47/6/3 45/6/3 43/6/3
f 48/6/3 44/6/3 46/6/3
f 49/6/3 47/6/3 43/6/3
f 49/6/3 48/6/3 47/6/3
f 50/6/3 44/6/3 48/6/3
f 50/6/3 48/6/3 49/6/3
f 53/2/3 52/2/3 51/2/3
f 54/2/3 53/2/3 51/2/3
f 55/2/3 54/2/3 51/2/3
f 56/2/3 54/2/3 55/2/3
f 57/2/4 58/2/4 59/2/4
f 57/2/4 59/2/4 60/2/4
f 57/2/4 60/2/4 61/2/4
f 61/2/4 60/2/4 62/2/4
f 63/6/4 64/6/4 65/6/4
f 65/6/4 64/6/4 66/6/4
f 63/6/4 65/6/4 67/6/4
f 65/2/4 66/2/4 67/2/4
f 66/6/4 64/6/4 68/6/4
f 67/2/4 66/2/4 68/2/4
f 63/6/4 67/6/4 69/6/4
f 68/6/4 64/6/4 70/6/4
f 63/6/4 69/6/4 71/6/4
f 69/6/4 70/6/4 71/6/4
f 70/6/4 64/6/4 72/6/4
f 71/6/4 70/6/4 72/6/4
f 75/6/5 74/6/5 73/6/5
f 76/6/5 74/6/5 75/6/5
f 77/2/5 76/2/5 75/2/5
f 78/2/5 76/2/5 77/2/5
f 79/2/5 77/2/5 75/2/5
f 79/1/5 78/1/5 77/1/5
f 80/2/5 76/2/5 78/2/5
f 80/1/5 78/1/5 79/1/5
f 81/2/5 79/2/5 75/2/5
f 81/2/5 80/2/5 79/2/5
f 82/2/5 76/2/5 80/2/5
f 82/2/5 80/2/5 81/2/5
f 83/6/5 82/6/5 81/6/5
f 84/6/5 82/6/5 83/6/5
f 87/6/5 86/6/5 85/6/5
f 88/6/5 86/6/5 87/6/5
f 89/2/5 88/2/5 87/2/5
f 90/2/5 88/2/5 89/2/5
f 91/2/5 89/2/5 87/2/5
f 92/3/5 90/3/5 89/3/5
f 92/2/5 89/2/5 91/2/5
f 93/2/5 88/2/5 90/2/5
f 93/3/5 90/3/5 92/3/5
f 94/2/5 88/2/5 93/2/5
f 99/2/5 96/2/5 95/2/5
f 99/5/5 97/5/5 96/5/5
f 100/2/5 98/2/5 97/2/5
f 100/5/5 97/5/5 99/5/5
f 101/2/5 98/2/5 100/2/5
f 102/2/5 100/2/5 99/2/5
f 102/5/5 101/5/5 100/5/5
f 103/5/5 101/5/5 102/5/5
f 104/2/5 99/2/5 95/2/5
f 104/2/5 102/2/5 99/2/5
f 104/2/5 103/2/5 102/2/5
f 105/2/5 103/2/5 104/2/5
f 106/6/5 105/6/5 104/6/5
f 107/6/5 105/6/5 106/6/5
f 108/6/6 109/6/6 110/6/6
f 110/6/6 109/6/6 111/6/6
f 110/2/6 111/2/6 112/2/6
f 112/2/6 111/2/6 113/2/6
f 114/2/6 115/2/6 116/2/6
f 116/2/6 115/2/6 117/2/6
f 116/6/6 117/6/6 118/6/6
f 118/6/6 117/6/6 119/6/6
f 120/6/6 121/6/6 122/6/6
f 122/6/6 121/6/6 123/6/6
f 122/2/6 123/2/6 124/2/6
f 124/2/6 123/2/6 125/2/6
f 122/2/6 124/2/6 126/2/6
f 124/3/6 125/3/6 127/3/6
f 126/2/6 124/2/6 127/2/6
f 125/2/6 123/2/6 128/2/6
f 127/3/6 125/3/6 128/3/6
f 128/2/6 123/2/6 129/2/6
f 126/3/6 127/3/6 130/3/6
f 127/3/6 128/3/6 130/3/6
f 128/3/6 129/3/6 130/3/6
f 130/3/6 129/3/6 131/3/6
f 131/3/6 129/3/6 132/3/6
f 132/3/6 129/3/6 133/3/6
f 132/4/6 133/4/6 134/4/6
f 133/3/6 129/3/6 135/3/6
f 134/4/6 133/4/6 135/4/6
f 135/3/6 129/3/6 136/3/6
f 126/3/6 130/3/6 137/3/6
f 130/4/6 131/4/6 137/4/6
f 131/3/6 132/3/6 138/3/6
f 137/4/6 131/4/6 138/4/6
f 132/4/6 134/4/6 139/4/6
f 138/3/6 132/3/6 139/3/6
f 134/2/6 135/2/6 140/2/6
f 139/4/6 134/4/6 140/4/6
f 135/4/6 136/4/6 141/4/6
f 140/2/6 135/2/6 141/2/6
f 136/3/6 129/3/6 142/3/6
f 141/4/6 136/4/6 142/4/6
f 140/4/6 141/4/6 143/4/6
f 139/4/6 140/4/6 143/4/6
f 137/3/6 138/3/6 143/3/6
f 138/4/6 139/4/6 143/4/6
f 141/3/6 142/3/6 144/3/6
f 143/4/6 141/4/6 144/4/6
f 137/3/6 143/3/6 145/3/6
f 126/3/6 137/3/6 145/3/6
f 143/3/6 144/3/6 145/3/6
f 145/3/6 144/3/6 146/3/6
f 145/4/6 146/4/6 147/4/6
f 147/4/6 146/4/6 148/4/6
f 145/4/6 147/4/6 149/4/6
f 147/2/6 148/2/6 149/2/6
f 148/4/6 146/4/6 150/4/6
f 149/2/6 148/2/6 150/2/6
f 146/3/6 144/3/6 151/3/6
f 150/4/6 146/4/6 151/4/6
f 142/3/6 129/3/6 152/3/6
f 151/3/6 144/3/6 152/3/6
f 144/3/6 142/3/6 152/3/6
f 150/4/6 151/4/6 153/4/6
f 145/4/6 149/4/6 153/4/6
f 151/4/6 152/4/6 153/4/6
f 149/4/6 150/4/6 153/4/6
f 126/3/6 145/3/6 153/3/6
f 152/3/6 129/3/6 154/3/6
f 153/4/6 152/4/6 154/4/6
f 126/3/6 153/3/6 155/3/6
f 153/3/6 154/3/6 155/3/6
f 155/3/6 154/3/6 156/3/6
f 155/4/6 156/4/6 157/4/6
f 156/3/6 154/3/6 158/3/6
f 157/4/6 156/4/6 158/4/6
f 155/4/6 157/4/6 159/4/6
f 157/3/6 158/3/6 159/3/6
f 158/3/6 154/3/6 160/3/6
f 159/3/6 158/3/6 160/3/6
f 126/3/6 155/3/6 161/3/6
f 155/4/6 159/4/6 161/4/6
f 159/4/6 160/4/6 161/4/6
f 160/3/6 154/3/6 162/3/6
f 161/4/6 160/4/6 162/4/6
f 162/3/6 154/3/6 163/3/6
f 154/3/6 129/3/6 164/3/6
f 163/3/6 154/3/6 164/3/6
f 162/3/6 163/3/6 165/3/6
f 126/3/6 161/3/6 165/3/6
f 161/3/6 162/3/6 165/3/6
f 163/4/6 164/4/6 166/4/6
f 165/3/6 163/3/6 166/3/6
f 126/3/6 165/3/6 167/3/6
f 165/4/6 166/4/6 167/4/6
f 166/4/6 164/4/6 168/4/6
f 167/4/6 166/4/6 168/4/6
f 122/2/6 126/2/6 169/2/6
f 126/3/6 167/3/6 169/3/6
f 167/3/6 168/3/6 169/3/6
f 169/3/6 168/3/6 170/3/6
f 168/4/6 164/4/6 171/4/6
f 170/3/6 168/3/6 171/3/6
f 164/3/6 129/3/6 172/3/6
f 171/4/6 164/4/6 172/4/6
f 129/2/6 123/2/6 173/2/6
f 172/3/6 129/3/6 173/3/6
f 171/3/6 172/3/6 174/3/6
f 169/2/6 170/2/6 174/2/6
f 170/3/6 171/3/6 174/3/6
f 172/2/6 173/2/6 175/2/6
f 174/3/6 172/3/6 175/3/6
f 169/2/6 174/2/6 176/2/6
f 122/2/6 169/2/6 176/2/6
f 174/2/6 175/2/6 176/2/6
f 176/2/6 175/2/6 177/2/6
f 176/5/6 177/5/6 178/5/6
f 177/2/6 175/2/6 179/2/6
f 178/5/6 177/5/6 179/5/6
f 176/5/6 178/5/6 180/5/6
f 178/2/6 179/2/6 180/2/6
f 179/2/6 175/2/6 181/2/6
f 180/2/6 179/2/6 181/2/6
f 122/2/6 176/2/6 182/2/6
f 176/5/6 180/5/6 182/5/6
f 180/5/6 181/5/6 182/5/6
f 181/2/6 175/2/6 183/2/6
f 182/5/6 181/5/6 183/5/6
f 122/2/6 182/2/6 184/2/6
f 182/2/6 183/2/6 184/2/6
f 183/2/6 175/2/6 185/2/6
f 184/2/6 183/2/6 185/2/6
f 184/5/6 185/5/6 186/5/6
f 186/5/6 185/5/6 187/5/6
f 184/5/6 186/5/6 188/5/6
f 186/2/6 187/2/6 188/2/6
f 187/5/6 185/5/6 189/5/6
f 188/2/6 187/2/6 189/2/6
f 122/2/6 184/2/6 190/2/6
f 184/5/6 188/5/6 190/5/6
f 188/5/6 189/5/6 190/5/6
f 189/5/6 185/5/6 191/5/6
f 190/5/6 189/5/6 191/5/6
f 185/2/6 175/2/6 191/2/6
f 191/2/6 175/2/6 192/2/6
f 173/2/6 123/2/6 193/2/6
f 192/2/6 175/2/6 193/2/6
f 175/2/6 173/2/6 193/2/6
f 191/2/6 192/2/6 194/2/6
f 190/2/6 191/2/6 194/2/6
f 192/5/6 193/5/6 195/5/6
f 194/2/6 192/2/6 195/2/6
f 193/2/6 123/2/6 196/2/6
f 195/5/6 193/5/6 196/5/6
f 190/2/6 194/2/6 197/2/6
f 122/2/6 190/2/6 197/2/6
f 194/5/6 195/5/6 198/5/6
f 197/2/6 194/2/6 198/2/6
f 198/5/6 195/5/6 199/5/6
f 195/2/6 196/2/6 200/2/6
f 199/5/6 195/5/6 200/5/6
f 122/2/6 197/2/6 201/2/6
f 198/5/6 199/5/6 201/5/6
f 197/5/6 198/5/6 201/5/6
f 201/5/6 199/5/6 202/5/6
f 199/2/6 200/2/6 203/2/6
f 202/5/6 199/5/6 203/5/6
f 200/2/6 196/2/6 204/2/6
f 203/2/6 200/2/6 204/2/6
f 202/5/6 203/5/6 205/5/6
f 201/2/6 202/2/6 205/2/6
f 203/5/6 204/5/6 205/5/6
f 204/2/6 196/2/6 206/2/6
f 205/5/6 204/5/6 206/5/6
f 196/2/6 123/2/6 207/2/6
f 206/2/6 196/2/6 207/2/6
f 205/2/6 206/2/6 208/2/6
f 206/5/6 207/5/6 208/5/6
f 207/2/6 123/2/6 209/2/6
f 208/5/6 207/5/6 209/5/6
f 201/2/6 205/2/6 210/2/6
f 205/2/6 208/2/6 210/2/6
f 208/2/6 209/2/6 210/2/6
f 122/2/6 201/2/6 210/2/6
f 209/2/6 123/2/6 211/2/6
f 210/2/6 209/2/6 211/2/6
f 210/6/6 211/6/6 212/6/6
f 212/6/6 211/6/6 213/6/6
