# MagicaVoxel @ Ephtracy

# material
mtllib хованскийт.mtl
usemtl palette

# normals
vn -1 0 0
vn 1 0 0
vn 0 0 1
vn 0 0 -1
vn 0 -1 0
vn 0 1 0

# texcoords
vt 0.0292969 0.5
vt 0.166016 0.5
vt 0.365234 0.5
vt 0.935547 0.5
vt 0.994141 0.5

# verts
v -14 12 -1
v -14 12 -3
v -14 13 -1
v -14 13 -3
v -13 13 -1
v -13 13 -3
v -13 14 -1
v -13 14 -3
v -11 14 -1
v -11 14 -3
v -11 15 -1
v -11 15 -3
v -9 8 7
v -9 8 -6
v -9 10 8
v -9 10 7
v -9 10 -6
v -9 10 -7
v -9 13 -1
v -9 13 -3
v -9 15 -1
v -9 15 -3
v -9 19 8
v -9 19 -7
v -9 20 8
v -9 20 -7
v -9 21 8
v -9 21 -7
v -8 7 6
v -8 7 -5
v -8 8 6
v -8 8 -5
v -8 19 7
v -8 19 -5
v -8 20 7
v -8 20 -5
v -8 20 -7
v -8 20 -8
v -8 21 -7
v -8 21 -8
v -7 5 5
v -7 5 -4
v -7 6 6
v -7 6 5
v -7 6 -4
v -7 6 -5
v -7 7 7
v -7 7 6
v -7 7 -5
v -7 7 -6
v -7 8 7
v -7 8 6
v -7 8 -5
v -7 8 -6
v -7 17 7
v -7 17 6
v -7 18 7
v -7 18 6
v -6 5 6
v -6 5 5
v -6 5 -4
v -6 5 -5
v -6 6 7
v -6 6 6
v -6 6 5
v -6 6 -4
v -6 6 -5
v -6 6 -6
v -6 7 7
v -6 7 6
v -6 7 -5
v -6 7 -6
v -6 10 -7
v -6 10 -8
v -6 15 -7
v -6 15 -8
v -4 10 -8
v -4 10 -10
v -4 14 -9
v -4 14 -10
v -4 15 -7
v -4 15 -8
v -4 16 -7
v -4 16 -9
v -4 18 -7
v -4 18 -8
v -4 19 -7
v -4 19 -8
v -3 0 2
v -3 0 -2
v -3 5 2
v -3 5 -2
v -3 16 -7
v -3 16 -9
v -3 17 -7
v -3 17 -9
v 1 0 2
v 1 0 -2
v 1 5 2
v 1 5 -2
v 3 10 -5
v 3 10 -6
v 3 10 -7
v 3 11 -5
v 3 11 -7
v 3 19 -5
v 3 19 -6
v 3 20 -5
v 3 20 -6
v 4 15 -7
v 4 15 -8
v 4 16 7
v 4 16 6
v 4 16 -8
v 4 17 7
v 4 17 6
v 4 17 -7
v 4 17 -8
v 11 12 -1
v 11 12 -3
v 11 13 -1
v 11 13 -3
v -11 12 -1
v -11 12 -3
v -11 13 -1
v -11 13 -3
v -8 17 7
v -8 17 6
v -8 18 7
v -8 18 6
v -3 10 -5
v -3 10 -6
v -3 10 -7
v -3 11 -5
v -3 11 -7
v -3 18 -7
v -3 18 -8
v -3 19 -7
v -3 19 -8
v -1 0 2
v -1 0 -2
v -1 5 2
v -1 5 -2
v 3 0 2
v 3 0 -2
v 3 5 2
v 3 5 -2
v 3 15 -7
v 3 15 -8
v 3 16 7
v 3 16 6
v 3 16 -8
v 3 16 -9
v 3 17 7
v 3 17 6
v 3 17 -7
v 3 17 -9
v 4 14 -8
v 4 14 -9
v 4 16 -8
v 4 16 -9
v 4 19 -5
v 4 19 -6
v 4 20 -5
v 4 20 -6
v 5 10 -8
v 5 10 -10
v 5 14 -8
v 5 14 -10
v 5 15 -7
v 5 15 -8
v 5 17 -7
v 5 17 -8
v 6 5 6
v 6 5 5
v 6 5 -4
v 6 5 -5
v 6 6 7
v 6 6 6
v 6 6 5
v 6 6 4
v 6 6 -4
v 6 6 -5
v 6 6 -6
v 6 7 7
v 6 7 6
v 6 7 -5
v 6 7 -6
v 6 8 6
v 6 8 4
v 7 5 5
v 7 5 -4
v 7 6 5
v 7 6 4
v 7 6 -4
v 7 6 -5
v 7 7 7
v 7 7 6
v 7 7 4
v 7 7 -5
v 7 7 -6
v 7 8 7
v 7 8 6
v 7 8 -5
v 7 8 -6
v 8 7 4
v 8 7 -5
v 8 8 4
v 8 8 -5
v 8 10 -7
v 8 10 -8
v 8 15 -7
v 8 15 -8
v 8 19 7
v 8 19 -5
v 8 20 8
v 8 20 7
v 8 20 -5
v 8 20 -7
v 8 20 -8
v 8 21 8
v 8 21 7
v 8 21 -7
v 8 21 -8
v 9 8 7
v 9 8 -6
v 9 10 7
v 9 10 -6
v 9 18 8
v 9 18 -7
v 9 19 8
v 9 19 -7
v 9 20 7
v 9 20 -7
v 9 21 7
v 9 21 -7
v 10 10 8
v 10 10 -7
v 10 13 -1
v 10 13 -3
v 10 15 -1
v 10 15 -3
v 10 18 8
v 10 18 -7
v 11 14 -1
v 11 14 -3
v 11 15 -1
v 11 15 -3
v 13 13 -1
v 13 13 -3
v 13 14 -1
v 13 14 -3
v 14 12 -1
v 14 12 -3
v 14 13 -1
v 14 13 -3
v -9 10 8
v -9 19 8
v -9 20 8
v -9 21 8
v 8 20 8
v 8 21 8
v 9 18 8
v 9 19 8
v 10 10 8
v 10 18 8
v -9 8 7
v -9 10 7
v -8 19 7
v -8 20 7
v -7 7 7
v -7 8 7
v -6 6 7
v -6 7 7
v 6 6 7
v 6 7 7
v 7 7 7
v 7 8 7
v 8 19 7
v 8 20 7
v 8 21 7
v 9 8 7
v 9 10 7
v 9 20 7
v 9 21 7
v -8 7 6
v -8 8 6
v -8 17 6
v -8 18 6
v -7 6 6
v -7 7 6
v -7 8 6
v -7 17 6
v -7 18 6
v -6 5 6
v -6 6 6
v -6 7 6
v 3 16 6
v 3 17 6
v 4 16 6
v 4 17 6
v 6 5 6
v 6 6 6
v -7 5 5
v -7 6 5
v -6 5 5
v -6 6 5
v 6 5 5
v 6 6 5
v 7 5 5
v 7 6 5
v 6 6 4
v 6 8 4
v 7 6 4
v 7 7 4
v 8 7 4
v 8 8 4
v -3 0 2
v -3 5 2
v -1 0 2
v -1 5 2
v 1 0 2
v 1 5 2
v 3 0 2
v 3 5 2
v -14 12 -1
v -14 13 -1
v -13 13 -1
v -13 14 -1
v -11 12 -1
v -11 13 -1
v -11 14 -1
v -11 15 -1
v -9 13 -1
v -9 15 -1
v 10 13 -1
v 10 15 -1
v 11 12 -1
v 11 13 -1
v 11 14 -1
v 11 15 -1
v 13 13 -1
v 13 14 -1
v 14 12 -1
v 14 13 -1
v -3 10 -7
v -3 11 -7
v 3 10 -7
v 3 11 -7
v 3 15 -8
v 3 16 -8
v 4 15 -8
v 4 16 -8
v -8 17 7
v -8 18 7
v -7 17 7
v -7 18 7
v 3 16 7
v 3 17 7
v 4 16 7
v 4 17 7
v 6 7 6
v 6 8 6
v 7 7 6
v 7 8 6
v -3 0 -2
v -3 5 -2
v -1 0 -2
v -1 5 -2
v 1 0 -2
v 1 5 -2
v 3 0 -2
v 3 5 -2
v -14 12 -3
v -14 13 -3
v -13 13 -3
v -13 14 -3
v -11 12 -3
v -11 13 -3
v -11 14 -3
v -11 15 -3
v -9 13 -3
v -9 15 -3
v 10 13 -3
v 10 15 -3
v 11 12 -3
v 11 13 -3
v 11 14 -3
v 11 15 -3
v 13 13 -3
v 13 14 -3
v 14 12 -3
v 14 13 -3
v -7 5 -4
v -7 6 -4
v -6 5 -4
v -6 6 -4
v 6 5 -4
v 6 6 -4
v 7 5 -4
v 7 6 -4
v -8 7 -5
v -8 8 -5
v -8 19 -5
v -8 20 -5
v -7 6 -5
v -7 7 -5
v -7 8 -5
v -6 5 -5
v -6 6 -5
v -6 7 -5
v -3 10 -5
v -3 11 -5
v 3 10 -5
v 3 11 -5
v 3 19 -5
v 3 20 -5
v 4 19 -5
v 4 20 -5
v 6 5 -5
v 6 6 -5
v 6 7 -5
v 7 6 -5
v 7 7 -5
v 7 8 -5
v 8 7 -5
v 8 8 -5
v 8 19 -5
v 8 20 -5
v -9 8 -6
v -9 10 -6
v -7 7 -6
v -7 8 -6
v -6 6 -6
v -6 7 -6
v -3 10 -6
v 3 10 -6
v 3 19 -6
v 3 20 -6
v 4 19 -6
v 4 20 -6
v 6 6 -6
v 6 7 -6
v 7 7 -6
v 7 8 -6
v 9 8 -6
v 9 10 -6
v -9 10 -7
v -9 19 -7
v -9 20 -7
v -9 21 -7
v -8 20 -7
v -8 21 -7
v -6 10 -7
v -6 15 -7
v -4 15 -7
v -4 16 -7
v -4 18 -7
v -4 19 -7
v -3 16 -7
v -3 17 -7
v -3 18 -7
v -3 19 -7
v 3 15 -7
v 3 17 -7
v 4 15 -7
v 4 17 -7
v 5 15 -7
v 5 17 -7
v 8 10 -7
v 8 15 -7
v 8 20 -7
v 8 21 -7
v 9 18 -7
v 9 19 -7
v 9 20 -7
v 9 21 -7
v 10 10 -7
v 10 18 -7
v -8 20 -8
v -8 21 -8
v -6 10 -8
v -6 15 -8
v -4 10 -8
v -4 15 -8
v -4 18 -8
v -4 19 -8
v -3 18 -8
v -3 19 -8
v 4 14 -8
v 4 16 -8
v 4 17 -8
v 5 10 -8
v 5 14 -8
v 5 15 -8
v 5 17 -8
v 8 10 -8
v 8 15 -8
v 8 20 -8
v 8 21 -8
v -4 14 -9
v -4 16 -9
v -3 16 -9
v -3 17 -9
v 3 16 -9
v 3 17 -9
v 4 14 -9
v 4 16 -9
v -4 10 -10
v -4 14 -10
v 5 10 -10
v 5 14 -10
v -3 0 2
v -1 0 2
v 1 0 2
v 3 0 2
v -3 0 -2
v -1 0 -2
v 1 0 -2
v 3 0 -2
v -6 5 6
v 6 5 6
v -7 5 5
v -6 5 5
v 6 5 5
v 7 5 5
v -3 5 2
v -1 5 2
v 1 5 2
v 3 5 2
v -3 5 -2
v -1 5 -2
v 1 5 -2
v 3 5 -2
v -7 5 -4
v -6 5 -4
v 6 5 -4
v 7 5 -4
v -6 5 -5
v 6 5 -5
v -6 6 7
v 6 6 7
v -7 6 6
v -6 6 6
v 6 6 6
v -7 6 5
v -6 6 5
v -7 6 -4
v -6 6 -4
v 6 6 -4
v 7 6 -4
v -7 6 -5
v -6 6 -5
v 6 6 -5
v 7 6 -5
v -6 6 -6
v 6 6 -6
v -7 7 7
v -6 7 7
v 6 7 7
v 7 7 7
v -8 7 6
v -7 7 6
v -6 7 6
v 6 7 6
v 7 7 6
v 7 7 4
v 8 7 4
v -8 7 -5
v -7 7 -5
v -6 7 -5
v 6 7 -5
v 7 7 -5
v 8 7 -5
v -7 7 -6
v -6 7 -6
v 6 7 -6
v 7 7 -6
v -9 8 7
v -7 8 7
v 7 8 7
v 9 8 7
v -8 8 6
v -7 8 6
v 6 8 6
v 7 8 6
v 6 8 4
v 8 8 4
v -8 8 -5
v -7 8 -5
v 7 8 -5
v 8 8 -5
v -9 8 -6
v -7 8 -6
v 7 8 -6
v 9 8 -6
v -9 10 8
v 10 10 8
v -9 10 7
v 9 10 7
v -9 10 -6
v -3 10 -6
v 3 10 -6
v 9 10 -6
v -9 10 -7
v -6 10 -7
v -3 10 -7
v 3 10 -7
v 8 10 -7
v 10 10 -7
v -6 10 -8
v -4 10 -8
v 5 10 -8
v 8 10 -8
v -4 10 -10
v 5 10 -10
v -3 11 -5
v 3 11 -5
v -3 11 -7
v 3 11 -7
v -14 12 -1
v -11 12 -1
v 11 12 -1
v 14 12 -1
v -14 12 -3
v -11 12 -3
v 11 12 -3
v 14 12 -3
v -11 13 -1
v -9 13 -1
v 10 13 -1
v 11 13 -1
v -11 13 -3
v -9 13 -3
v 10 13 -3
v 11 13 -3
v 3 17 7
v 4 17 7
v 3 17 6
v 4 17 6
v -8 18 7
v -7 18 7
v -8 18 6
v -7 18 6
v -4 18 -7
v -3 18 -7
v -4 18 -8
v -3 18 -8
v -9 20 8
v 8 20 8
v -8 20 7
v 8 20 7
v 9 20 7
v -8 20 -5
v 3 20 -5
v 4 20 -5
v 8 20 -5
v 3 20 -6
v 4 20 -6
v -9 20 -7
v -8 20 -7
v 8 20 -7
v 9 20 -7
v -8 20 -8
v 8 20 -8
v 6 6 5
v 7 6 5
v 6 6 4
v 7 6 4
v -3 10 -5
v 3 10 -5
v -3 10 -6
v 3 10 -6
v -14 13 -1
v -13 13 -1
v 13 13 -1
v 14 13 -1
v -14 13 -3
v -13 13 -3
v 13 13 -3
v 14 13 -3
v -13 14 -1
v -11 14 -1
v 11 14 -1
v 13 14 -1
v -13 14 -3
v -11 14 -3
v 11 14 -3
v 13 14 -3
v 4 14 -8
v 5 14 -8
v -4 14 -9
v 4 14 -9
v -4 14 -10
v 5 14 -10
v -11 15 -1
v -9 15 -1
v 10 15 -1
v 11 15 -1
v -11 15 -3
v -9 15 -3
v 10 15 -3
v 11 15 -3
v -6 15 -7
v -4 15 -7
v 3 15 -7
v 4 15 -7
v 5 15 -7
v 8 15 -7
v -6 15 -8
v -4 15 -8
v 3 15 -8
v 4 15 -8
v 5 15 -8
v 8 15 -8
v 3 16 7
v 4 16 7
v 3 16 6
v 4 16 6
v -4 16 -7
v -3 16 -7
v 3 16 -8
v 4 16 -8
v -4 16 -9
v -3 16 -9
v 3 16 -9
v 4 16 -9
v -8 17 7
v -7 17 7
v -8 17 6
v -7 17 6
v -3 17 -7
v 3 17 -7
v 4 17 -7
v 5 17 -7
v 4 17 -8
v 5 17 -8
v -3 17 -9
v 3 17 -9
v 9 18 8
v 10 18 8
v 9 18 -7
v 10 18 -7
v -9 19 8
v 9 19 8
v -8 19 7
v 8 19 7
v -8 19 -5
v 3 19 -5
v 4 19 -5
v 8 19 -5
v 3 19 -6
v 4 19 -6
v -9 19 -7
v -4 19 -7
v -3 19 -7
v 9 19 -7
v -4 19 -8
v -3 19 -8
v -9 21 8
v 8 21 8
v 8 21 7
v 9 21 7
v -9 21 -7
v -8 21 -7
v 8 21 -7
v 9 21 -7
v -8 21 -8
v 8 21 -8

# faces
f 3/1/1 2/1/1 1/1/1
f 4/1/1 2/1/1 3/1/1
f 7/1/1 6/1/1 5/1/1
f 8/1/1 6/1/1 7/1/1
f 11/5/1 10/5/1 9/5/1
f 12/5/1 10/5/1 11/5/1
f 16/4/1 14/4/1 13/4/1
f 17/4/1 14/4/1 16/4/1
f 19/5/1 16/5/1 15/5/1
f 19/5/1 18/5/1 17/5/1
f 19/5/1 17/5/1 16/5/1
f 20/5/1 18/5/1 19/5/1
f 21/5/1 19/5/1 15/5/1
f 22/5/1 18/5/1 20/5/1
f 23/5/1 21/5/1 15/5/1
f 23/5/1 22/5/1 21/5/1
f 24/5/1 18/5/1 22/5/1
f 24/5/1 22/5/1 23/5/1
f 27/5/1 26/5/1 25/5/1
f 28/5/1 26/5/1 27/5/1
f 31/4/1 30/4/1 29/4/1
f 32/4/1 30/4/1 31/4/1
f 35/5/1 34/5/1 33/5/1
f 36/5/1 34/5/1 35/5/1
f 39/5/1 38/5/1 37/5/1
f 40/5/1 38/5/1 39/5/1
f 44/4/1 42/4/1 41/4/1
f 45/4/1 42/4/1 44/4/1
f 48/4/1 44/4/1 43/4/1
f 48/4/1 46/4/1 45/4/1
f 48/4/1 45/4/1 44/4/1
f 49/4/1 46/4/1 48/4/1
f 51/4/1 48/4/1 47/4/1
f 52/4/1 48/4/1 51/4/1
f 53/4/1 50/4/1 49/4/1
f 54/4/1 50/4/1 53/4/1
f 57/2/1 56/2/1 55/2/1
f 58/2/1 56/2/1 57/2/1
f 64/4/1 60/4/1 59/4/1
f 65/4/1 60/4/1 64/4/1
f 66/4/1 62/4/1 61/4/1
f 67/4/1 62/4/1 66/4/1
f 69/4/1 64/4/1 63/4/1
f 70/4/1 64/4/1 69/4/1
f 71/4/1 68/4/1 67/4/1
f 72/4/1 68/4/1 71/4/1
f 75/5/1 74/5/1 73/5/1
f 76/5/1 74/5/1 75/5/1
f 79/5/1 78/5/1 77/5/1
f 80/5/1 78/5/1 79/5/1
f 82/5/1 79/5/1 77/5/1
f 83/5/1 82/5/1 81/5/1
f 84/5/1 79/5/1 82/5/1
f 84/5/1 82/5/1 83/5/1
f 87/5/1 86/5/1 85/5/1
f 88/5/1 86/5/1 87/5/1
f 91/3/1 90/3/1 89/3/1
f 92/3/1 90/3/1 91/3/1
f 95/5/1 94/5/1 93/5/1
f 96/5/1 94/5/1 95/5/1
f 99/3/1 98/3/1 97/3/1
f 100/3/1 98/3/1 99/3/1
f 104/5/1 102/5/1 101/5/1
f 104/5/1 103/5/1 102/5/1
f 105/5/1 103/5/1 104/5/1
f 108/5/1 107/5/1 106/5/1
f 109/5/1 107/5/1 108/5/1
f 114/5/1 111/5/1 110/5/1
f 115/2/1 113/2/1 112/2/1
f 116/2/1 113/2/1 115/2/1
f 117/5/1 114/5/1 110/5/1
f 118/5/1 114/5/1 117/5/1
f 121/1/1 120/1/1 119/1/1
f 122/1/1 120/1/1 121/1/1
f 123/1/2 124/1/2 125/1/2
f 125/1/2 124/1/2 126/1/2
f 127/5/2 128/5/2 129/5/2
f 129/5/2 128/5/2 130/5/2
f 131/5/2 132/5/2 134/5/2
f 132/5/2 133/5/2 134/5/2
f 134/5/2 133/5/2 135/5/2
f 136/5/2 137/5/2 138/5/2
f 138/5/2 137/5/2 139/5/2
f 140/3/2 141/3/2 142/3/2
f 142/3/2 141/3/2 143/3/2
f 144/3/2 145/3/2 146/3/2
f 146/3/2 145/3/2 147/3/2
f 148/5/2 149/5/2 152/5/2
f 150/2/2 151/2/2 154/2/2
f 154/2/2 151/2/2 155/2/2
f 152/5/2 153/5/2 156/5/2
f 148/5/2 152/5/2 156/5/2
f 156/5/2 153/5/2 157/5/2
f 158/5/2 159/5/2 160/5/2
f 160/5/2 159/5/2 161/5/2
f 162/5/2 163/5/2 164/5/2
f 164/5/2 163/5/2 165/5/2
f 166/5/2 167/5/2 168/5/2
f 168/5/2 167/5/2 169/5/2
f 170/5/2 171/5/2 172/5/2
f 172/5/2 171/5/2 173/5/2
f 174/4/2 175/4/2 179/4/2
f 179/4/2 175/4/2 180/4/2
f 176/4/2 177/4/2 182/4/2
f 182/4/2 177/4/2 183/4/2
f 180/4/2 181/4/2 185/4/2
f 178/4/2 179/4/2 185/4/2
f 179/4/2 180/4/2 185/4/2
f 185/4/2 181/4/2 186/4/2
f 183/4/2 184/4/2 187/4/2
f 187/4/2 184/4/2 188/4/2
f 186/4/2 181/4/2 189/4/2
f 189/4/2 181/4/2 190/4/2
f 191/4/2 192/4/2 193/4/2
f 193/4/2 192/4/2 194/4/2
f 194/4/2 192/4/2 195/4/2
f 195/4/2 196/4/2 199/4/2
f 194/4/2 195/4/2 199/4/2
f 199/4/2 196/4/2 200/4/2
f 197/4/2 198/4/2 202/4/2
f 202/4/2 198/4/2 203/4/2
f 200/4/2 201/4/2 204/4/2
f 204/4/2 201/4/2 205/4/2
f 206/4/2 207/4/2 208/4/2
f 208/4/2 207/4/2 209/4/2
f 210/5/2 211/5/2 212/5/2
f 212/5/2 211/5/2 213/5/2
f 214/5/2 215/5/2 217/5/2
f 217/5/2 215/5/2 218/5/2
f 216/5/2 217/5/2 221/5/2
f 221/5/2 217/5/2 222/5/2
f 219/5/2 220/5/2 223/5/2
f 223/5/2 220/5/2 224/5/2
f 225/4/2 226/4/2 227/4/2
f 227/4/2 226/4/2 228/4/2
f 229/5/2 230/5/2 231/5/2
f 231/5/2 230/5/2 232/5/2
f 233/5/2 234/5/2 235/5/2
f 235/5/2 234/5/2 236/5/2
f 237/5/2 238/5/2 239/5/2
f 239/5/2 238/5/2 240/5/2
f 237/5/2 239/5/2 241/5/2
f 240/5/2 238/5/2 242/5/2
f 237/5/2 241/5/2 243/5/2
f 241/5/2 242/5/2 243/5/2
f 242/5/2 238/5/2 244/5/2
f 243/5/2 242/5/2 244/5/2
f 245/5/2 246/5/2 247/5/2
f 247/5/2 246/5/2 248/5/2
f 249/1/2 250/1/2 251/1/2
f 251/1/2 250/1/2 252/1/2
f 253/1/2 254/1/2 255/1/2
f 255/1/2 254/1/2 256/1/2
f 261/5/3 260/5/3 259/5/3
f 262/5/3 260/5/3 261/5/3
f 263/5/3 258/5/3 257/5/3
f 264/5/3 258/5/3 263/5/3
f 265/5/3 263/5/3 257/5/3
f 266/5/3 263/5/3 265/5/3
f 272/4/3 268/4/3 267/4/3
f 274/4/3 272/4/3 271/4/3
f 275/4/3 274/4/3 273/4/3
f 276/4/3 272/4/3 274/4/3
f 276/4/3 274/4/3 275/4/3
f 277/4/3 272/4/3 276/4/3
f 278/4/3 268/4/3 272/4/3
f 278/4/3 272/4/3 277/4/3
f 279/5/3 270/5/3 269/5/3
f 280/5/3 270/5/3 279/5/3
f 282/4/3 268/4/3 278/4/3
f 283/4/3 268/4/3 282/4/3
f 284/5/3 281/5/3 280/5/3
f 285/5/3 281/5/3 284/5/3
f 291/4/3 287/4/3 286/4/3
f 292/4/3 287/4/3 291/4/3
f 293/2/3 289/2/3 288/2/3
f 294/2/3 289/2/3 293/2/3
f 296/4/3 291/4/3 290/4/3
f 297/4/3 291/4/3 296/4/3
f 300/2/3 299/2/3 298/2/3
f 301/2/3 299/2/3 300/2/3
f 302/4/3 296/4/3 295/4/3
f 303/4/3 296/4/3 302/4/3
f 306/4/3 305/4/3 304/4/3
f 307/4/3 305/4/3 306/4/3
f 310/4/3 309/4/3 308/4/3
f 311/4/3 309/4/3 310/4/3
f 314/4/3 313/4/3 312/4/3
f 315/4/3 313/4/3 314/4/3
f 316/4/3 313/4/3 315/4/3
f 317/4/3 313/4/3 316/4/3
f 320/3/3 319/3/3 318/3/3
f 321/3/3 319/3/3 320/3/3
f 324/3/3 323/3/3 322/3/3
f 325/3/3 323/3/3 324/3/3
f 328/1/3 327/1/3 326/1/3
f 330/1/3 328/1/3 326/1/3
f 330/1/3 329/1/3 328/1/3
f 331/1/3 329/1/3 330/1/3
f 332/1/3 329/1/3 331/1/3
f 334/5/3 333/5/3 332/5/3
f 334/5/3 332/5/3 331/5/3
f 335/5/3 333/5/3 334/5/3
f 339/5/3 337/5/3 336/5/3
f 340/5/3 337/5/3 339/5/3
f 341/5/3 337/5/3 340/5/3
f 342/1/3 339/1/3 338/1/3
f 342/1/3 340/1/3 339/1/3
f 343/1/3 340/1/3 342/1/3
f 344/1/3 342/1/3 338/1/3
f 345/1/3 342/1/3 344/1/3
f 348/5/3 347/5/3 346/5/3
f 349/5/3 347/5/3 348/5/3
f 352/5/3 351/5/3 350/5/3
f 353/5/3 351/5/3 352/5/3
f 354/5/4 355/5/4 356/5/4
f 356/5/4 355/5/4 357/5/4
f 358/5/4 359/5/4 360/5/4
f 360/5/4 359/5/4 361/5/4
f 362/4/4 363/4/4 364/4/4
f 364/4/4 363/4/4 365/4/4
f 366/3/4 367/3/4 368/3/4
f 368/3/4 367/3/4 369/3/4
f 370/3/4 371/3/4 372/3/4
f 372/3/4 371/3/4 373/3/4
f 374/1/4 375/1/4 376/1/4
f 374/1/4 376/1/4 378/1/4
f 376/1/4 377/1/4 378/1/4
f 378/1/4 377/1/4 379/1/4
f 379/1/4 377/1/4 380/1/4
f 380/5/4 381/5/4 382/5/4
f 379/5/4 380/5/4 382/5/4
f 382/5/4 381/5/4 383/5/4
f 384/5/4 385/5/4 387/5/4
f 387/5/4 385/5/4 388/5/4
f 388/5/4 385/5/4 389/5/4
f 386/1/4 387/1/4 390/1/4
f 387/1/4 388/1/4 390/1/4
f 390/1/4 388/1/4 391/1/4
f 386/1/4 390/1/4 392/1/4
f 392/1/4 390/1/4 393/1/4
f 394/4/4 395/4/4 396/4/4
f 396/4/4 395/4/4 397/4/4
f 398/4/4 399/4/4 400/4/4
f 400/4/4 399/4/4 401/4/4
f 402/4/4 403/4/4 407/4/4
f 407/4/4 403/4/4 408/4/4
f 406/4/4 407/4/4 410/4/4
f 410/4/4 407/4/4 411/4/4
f 412/5/4 413/5/4 414/5/4
f 414/5/4 413/5/4 415/5/4
f 404/5/4 405/5/4 416/5/4
f 416/5/4 405/5/4 417/5/4
f 409/4/4 410/4/4 420/4/4
f 420/4/4 410/4/4 421/4/4
f 421/4/4 422/4/4 423/4/4
f 423/4/4 422/4/4 424/4/4
f 424/4/4 425/4/4 426/4/4
f 426/4/4 425/4/4 427/4/4
f 418/5/4 419/5/4 428/5/4
f 428/5/4 419/5/4 429/5/4
f 430/4/4 431/4/4 433/4/4
f 432/4/4 433/4/4 435/4/4
f 433/4/4 431/4/4 436/4/4
f 434/4/4 435/4/4 436/4/4
f 435/4/4 433/4/4 436/4/4
f 434/4/4 436/4/4 437/4/4
f 438/5/4 439/5/4 440/5/4
f 440/5/4 439/5/4 441/5/4
f 434/4/4 437/4/4 442/4/4
f 442/4/4 437/4/4 443/4/4
f 443/4/4 437/4/4 444/4/4
f 444/4/4 437/4/4 445/4/4
f 445/4/4 437/4/4 446/4/4
f 446/4/4 437/4/4 447/4/4
f 450/5/4 451/5/4 452/5/4
f 452/5/4 451/5/4 453/5/4
f 448/5/4 449/5/4 454/5/4
f 454/5/4 449/5/4 455/5/4
f 455/5/4 449/5/4 456/5/4
f 456/5/4 449/5/4 457/5/4
f 457/5/4 449/5/4 458/5/4
f 458/5/4 449/5/4 459/5/4
f 457/5/4 458/5/4 460/5/4
f 460/5/4 458/5/4 461/5/4
f 461/5/4 458/5/4 462/5/4
f 462/5/4 463/5/4 465/5/4
f 461/5/4 462/5/4 465/5/4
f 464/5/4 465/5/4 466/5/4
f 465/5/4 463/5/4 467/5/4
f 466/5/4 465/5/4 467/5/4
f 467/5/4 463/5/4 469/5/4
f 468/5/4 469/5/4 471/5/4
f 470/5/4 471/5/4 474/5/4
f 469/5/4 463/5/4 474/5/4
f 471/5/4 469/5/4 474/5/4
f 474/5/4 463/5/4 475/5/4
f 472/5/4 473/5/4 476/5/4
f 476/5/4 473/5/4 477/5/4
f 470/5/4 474/5/4 478/5/4
f 478/5/4 474/5/4 479/5/4
f 482/5/4 483/5/4 484/5/4
f 484/5/4 483/5/4 485/5/4
f 486/5/4 487/5/4 488/5/4
f 488/5/4 487/5/4 489/5/4
f 490/5/4 491/5/4 494/5/4
f 491/5/4 492/5/4 494/5/4
f 494/5/4 492/5/4 495/5/4
f 495/5/4 492/5/4 496/5/4
f 493/5/4 494/5/4 497/5/4
f 494/5/4 495/5/4 497/5/4
f 497/5/4 495/5/4 498/5/4
f 480/5/4 481/5/4 499/5/4
f 499/5/4 481/5/4 500/5/4
f 501/5/4 502/5/4 503/5/4
f 501/5/4 503/5/4 505/5/4
f 503/5/4 504/5/4 505/5/4
f 505/5/4 504/5/4 506/5/4
f 501/5/4 505/5/4 507/5/4
f 507/5/4 505/5/4 508/5/4
f 509/5/4 510/5/4 511/5/4
f 511/5/4 510/5/4 512/5/4
f 517/3/5 514/3/5 513/3/5
f 518/3/5 514/3/5 517/3/5
f 519/3/5 516/3/5 515/3/5
f 520/3/5 516/3/5 519/3/5
f 524/4/5 522/4/5 521/4/5
f 525/4/5 522/4/5 524/4/5
f 527/4/5 524/4/5 523/4/5
f 527/4/5 526/4/5 525/4/5
f 527/4/5 525/4/5 524/4/5
f 528/4/5 526/4/5 527/4/5
f 529/4/5 526/4/5 528/4/5
f 530/4/5 526/4/5 529/4/5
f 531/4/5 527/4/5 523/4/5
f 532/4/5 529/4/5 528/4/5
f 533/4/5 529/4/5 532/4/5
f 534/4/5 526/4/5 530/4/5
f 535/4/5 533/4/5 532/4/5
f 535/4/5 534/4/5 533/4/5
f 535/4/5 531/4/5 523/4/5
f 535/4/5 532/4/5 531/4/5
f 536/4/5 534/4/5 535/4/5
f 537/4/5 526/4/5 534/4/5
f 537/4/5 534/4/5 536/4/5
f 538/4/5 526/4/5 537/4/5
f 539/4/5 537/4/5 536/4/5
f 540/4/5 537/4/5 539/4/5
f 544/4/5 542/4/5 541/4/5
f 545/4/5 542/4/5 544/4/5
f 546/4/5 544/4/5 543/4/5
f 547/4/5 544/4/5 546/4/5
f 552/4/5 549/4/5 548/4/5
f 553/4/5 549/4/5 552/4/5
f 554/4/5 551/4/5 550/4/5
f 555/4/5 551/4/5 554/4/5
f 556/4/5 554/4/5 553/4/5
f 557/4/5 554/4/5 556/4/5
f 563/4/5 559/4/5 558/4/5
f 564/4/5 559/4/5 563/4/5
f 565/4/5 561/4/5 560/4/5
f 566/4/5 561/4/5 565/4/5
f 569/4/5 563/4/5 562/4/5
f 570/4/5 563/4/5 569/4/5
f 573/4/5 568/4/5 567/4/5
f 574/4/5 568/4/5 573/4/5
f 575/4/5 571/4/5 570/4/5
f 576/4/5 571/4/5 575/4/5
f 577/4/5 573/4/5 572/4/5
f 578/4/5 573/4/5 577/4/5
f 583/4/5 580/4/5 579/4/5
f 584/4/5 580/4/5 583/4/5
f 586/4/5 582/4/5 581/4/5
f 587/4/5 586/4/5 585/4/5
f 588/4/5 582/4/5 586/4/5
f 588/4/5 586/4/5 587/4/5
f 589/4/5 583/4/5 579/4/5
f 592/4/5 582/4/5 588/4/5
f 593/4/5 590/4/5 589/4/5
f 593/4/5 589/4/5 579/4/5
f 594/4/5 590/4/5 593/4/5
f 595/4/5 592/4/5 591/4/5
f 596/4/5 582/4/5 592/4/5
f 596/4/5 592/4/5 595/4/5
f 599/5/5 598/5/5 597/5/5
f 600/5/5 598/5/5 599/5/5
f 604/5/5 598/5/5 600/5/5
f 605/5/5 602/5/5 601/5/5
f 606/5/5 602/5/5 605/5/5
f 607/5/5 602/5/5 606/5/5
f 608/5/5 604/5/5 603/5/5
f 609/5/5 604/5/5 608/5/5
f 610/5/5 598/5/5 604/5/5
f 610/5/5 604/5/5 609/5/5
f 611/5/5 607/5/5 606/5/5
f 611/5/5 609/5/5 608/5/5
f 611/5/5 608/5/5 607/5/5
f 612/5/5 609/5/5 611/5/5
f 613/5/5 609/5/5 612/5/5
f 614/5/5 609/5/5 613/5/5
f 615/5/5 613/5/5 612/5/5
f 616/5/5 613/5/5 615/5/5
f 619/5/5 618/5/5 617/5/5
f 620/5/5 618/5/5 619/5/5
f 625/1/5 622/1/5 621/1/5
f 626/1/5 622/1/5 625/1/5
f 627/1/5 624/1/5 623/1/5
f 628/1/5 624/1/5 627/1/5
f 633/5/5 630/5/5 629/5/5
f 634/5/5 630/5/5 633/5/5
f 635/5/5 632/5/5 631/5/5
f 636/5/5 632/5/5 635/5/5
f 639/2/5 638/2/5 637/2/5
f 640/2/5 638/2/5 639/2/5
f 643/2/5 642/2/5 641/2/5
f 644/2/5 642/2/5 643/2/5
f 647/5/5 646/5/5 645/5/5
f 648/5/5 646/5/5 647/5/5
f 651/5/5 650/5/5 649/5/5
f 652/5/5 650/5/5 651/5/5
f 654/5/5 651/5/5 649/5/5
f 657/5/5 653/5/5 652/5/5
f 658/5/5 655/5/5 654/5/5
f 659/5/5 657/5/5 656/5/5
f 660/5/5 658/5/5 654/5/5
f 660/5/5 659/5/5 658/5/5
f 660/5/5 654/5/5 649/5/5
f 661/5/5 659/5/5 660/5/5
f 662/5/5 657/5/5 659/5/5
f 662/5/5 659/5/5 661/5/5
f 662/5/5 653/5/5 657/5/5
f 663/5/5 653/5/5 662/5/5
f 664/5/5 662/5/5 661/5/5
f 665/5/5 662/5/5 664/5/5
f 666/4/6 667/4/6 668/4/6
f 668/4/6 667/4/6 669/4/6
f 670/4/6 671/4/6 672/4/6
f 672/4/6 671/4/6 673/4/6
f 674/1/6 675/1/6 678/1/6
f 678/1/6 675/1/6 679/1/6
f 676/1/6 677/1/6 680/1/6
f 680/1/6 677/1/6 681/1/6
f 682/1/6 683/1/6 686/1/6
f 686/1/6 683/1/6 687/1/6
f 684/1/6 685/1/6 688/1/6
f 688/1/6 685/1/6 689/1/6
f 690/5/6 691/5/6 693/5/6
f 692/5/6 693/5/6 694/5/6
f 693/5/6 691/5/6 695/5/6
f 694/5/6 693/5/6 695/5/6
f 696/5/6 697/5/6 700/5/6
f 700/5/6 697/5/6 701/5/6
f 698/5/6 699/5/6 702/5/6
f 702/5/6 699/5/6 703/5/6
f 704/5/6 705/5/6 710/5/6
f 710/5/6 705/5/6 711/5/6
f 706/5/6 707/5/6 712/5/6
f 712/5/6 707/5/6 713/5/6
f 708/5/6 709/5/6 714/5/6
f 714/5/6 709/5/6 715/5/6
f 716/2/6 717/2/6 718/2/6
f 718/2/6 717/2/6 719/2/6
f 720/5/6 721/5/6 724/5/6
f 724/5/6 721/5/6 725/5/6
f 722/5/6 723/5/6 726/5/6
f 726/5/6 723/5/6 727/5/6
f 728/2/6 729/2/6 730/2/6
f 730/2/6 729/2/6 731/2/6
f 734/5/6 735/5/6 736/5/6
f 736/5/6 735/5/6 737/5/6
f 732/5/6 733/5/6 738/5/6
f 738/5/6 733/5/6 739/5/6
f 740/5/6 741/5/6 742/5/6
f 742/5/6 741/5/6 743/5/6
f 744/5/6 745/5/6 746/5/6
f 746/5/6 745/5/6 747/5/6
f 744/5/6 746/5/6 748/5/6
f 747/5/6 745/5/6 751/5/6
f 748/5/6 749/5/6 752/5/6
f 750/5/6 751/5/6 753/5/6
f 748/5/6 752/5/6 754/5/6
f 752/5/6 753/5/6 754/5/6
f 744/5/6 748/5/6 754/5/6
f 754/5/6 753/5/6 755/5/6
f 755/5/6 753/5/6 756/5/6
f 753/5/6 751/5/6 757/5/6
f 756/5/6 753/5/6 757/5/6
f 751/5/6 745/5/6 757/5/6
f 755/5/6 756/5/6 758/5/6
f 758/5/6 756/5/6 759/5/6
f 760/5/6 761/5/6 762/5/6
f 760/5/6 762/5/6 764/5/6
f 762/5/6 763/5/6 764/5/6
f 764/5/6 763/5/6 765/5/6
f 765/5/6 763/5/6 766/5/6
f 766/5/6 763/5/6 767/5/6
f 765/5/6 766/5/6 768/5/6
f 768/5/6 766/5/6 769/5/6
