# MagicaVoxel @ Ephtracy

# material
mtllib carone.mtl
usemtl palette

# normals
vn -1 0 0
vn 1 0 0
vn 0 0 1
vn 0 0 -1
vn 0 -1 0
vn 0 1 0

# texcoords
vt 0.908203 0.5
vt 0.951172 0.5
vt 0.978516 0.5
vt 0.986328 0.5

# verts
v -5 0 10.5
v -5 0 6.5
v -5 0 -6.5
v -5 0 -10.5
v -5 1 12.5
v -5 1 10.5
v -5 1 9.5
v -5 1 7.5
v -5 1 6.5
v -5 1 -6.5
v -5 1 -7.5
v -5 1 -9.5
v -5 1 -10.5
v -5 1 -12.5
v -5 2 12.5
v -5 2 10.5
v -5 2 6.5
v -5 2 -6.5
v -5 2 -10.5
v -5 2 -12.5
v -5 3 9.5
v -5 3 7.5
v -5 3 -7.5
v -5 3 -9.5
v -5 4 10.5
v -5 4 6.5
v -5 4 -6.5
v -5 4 -10.5
v -5 7 12.5
v -5 7 -3.5
v -5 7 -4.5
v -5 7 -12.5
v -5 9 -3.5
v -5 9 -4.5
v -4 7 8.5
v -4 7 7.5
v -4 7 4.5
v -4 7 3.5
v -4 7 -3.5
v -4 7 -4.5
v -4 7 -5.5
v -4 9 -3.5
v -4 9 -4.5
v -4 11 7.5
v -4 11 4.5
v -4 11 3.5
v -4 11 -3.5
v -4 12 8.5
v -4 12 -5.5
v -3 12 2.5
v -3 12 -3.5
v -3 13 2.5
v -3 13 -3.5
v 4 0 10.5
v 4 0 6.5
v 4 0 -6.5
v 4 0 -10.5
v 4 1 11.5
v 4 1 10.5
v 4 1 9.5
v 4 1 7.5
v 4 1 6.5
v 4 1 -6.5
v 4 1 -7.5
v 4 1 -9.5
v 4 1 -10.5
v 4 1 -11.5
v 4 2 11.5
v 4 2 10.5
v 4 2 9.5
v 4 2 8.5
v 4 2 7.5
v 4 2 6.5
v 4 2 -6.5
v 4 2 -7.5
v 4 2 -9.5
v 4 2 -10.5
v 4 2 -11.5
v -4 0 10.5
v -4 0 6.5
v -4 0 -6.5
v -4 0 -10.5
v -4 1 11.5
v -4 1 10.5
v -4 1 9.5
v -4 1 7.5
v -4 1 6.5
v -4 1 -6.5
v -4 1 -7.5
v -4 1 -9.5
v -4 1 -10.5
v -4 1 -11.5
v -4 2 11.5
v -4 2 10.5
v -4 2 9.5
v -4 2 8.5
v -4 2 7.5
v -4 2 6.5
v -4 2 -6.5
v -4 2 -7.5
v -4 2 -9.5
v -4 2 -10.5
v -4 2 -11.5
v 3 12 2.5
v 3 12 -3.5
v 3 13 2.5
v 3 13 -3.5
v 4 7 8.5
v 4 7 7.5
v 4 7 4.5
v 4 7 3.5
v 4 7 -3.5
v 4 7 -4.5
v 4 7 -5.5
v 4 9 -3.5
v 4 9 -4.5
v 4 11 7.5
v 4 11 4.5
v 4 11 3.5
v 4 11 -3.5
v 4 12 8.5
v 4 12 -5.5
v 5 0 10.5
v 5 0 6.5
v 5 0 -6.5
v 5 0 -10.5
v 5 1 12.5
v 5 1 10.5
v 5 1 9.5
v 5 1 7.5
v 5 1 6.5
v 5 1 -6.5
v 5 1 -7.5
v 5 1 -9.5
v 5 1 -10.5
v 5 1 -12.5
v 5 2 12.5
v 5 2 10.5
v 5 2 6.5
v 5 2 -6.5
v 5 2 -10.5
v 5 2 -12.5
v 5 3 9.5
v 5 3 7.5
v 5 3 -7.5
v 5 3 -9.5
v 5 4 10.5
v 5 4 6.5
v 5 4 -6.5
v 5 4 -10.5
v 5 7 12.5
v 5 7 -3.5
v 5 7 -4.5
v 5 7 -12.5
v 5 9 -3.5
v 5 9 -4.5
v -5 1 12.5
v -5 2 12.5
v -5 7 12.5
v -4 4 12.5
v -4 5 12.5
v -2 4 12.5
v -2 5 12.5
v 2 4 12.5
v 2 5 12.5
v 4 4 12.5
v 4 5 12.5
v 5 1 12.5
v 5 2 12.5
v 5 7 12.5
v -5 0 10.5
v -5 1 10.5
v -4 0 10.5
v -4 1 10.5
v 4 0 10.5
v 4 1 10.5
v 5 0 10.5
v 5 1 10.5
v -4 7 8.5
v -4 12 8.5
v -3 7 8.5
v -3 11 8.5
v 3 7 8.5
v 3 11 8.5
v 4 7 8.5
v 4 12 8.5
v -3 12 2.5
v -3 13 2.5
v 3 12 2.5
v 3 13 2.5
v -5 7 -3.5
v -5 9 -3.5
v -4 7 -3.5
v -4 9 -3.5
v 4 7 -3.5
v 4 9 -3.5
v 5 7 -3.5
v 5 9 -3.5
v -5 0 -6.5
v -5 1 -6.5
v -4 0 -6.5
v -4 1 -6.5
v 4 0 -6.5
v 4 1 -6.5
v 5 0 -6.5
v 5 1 -6.5
v -4 1 -11.5
v -4 2 -11.5
v 4 1 -11.5
v 4 2 -11.5
v -4 1 11.5
v -4 2 11.5
v 4 1 11.5
v 4 2 11.5
v -5 0 6.5
v -5 1 6.5
v -4 0 6.5
v -4 1 6.5
v 4 0 6.5
v 4 1 6.5
v 5 0 6.5
v 5 1 6.5
v -3 12 -3.5
v -3 13 -3.5
v 3 12 -3.5
v 3 13 -3.5
v -5 7 -4.5
v -5 9 -4.5
v -4 7 -4.5
v -4 9 -4.5
v 4 7 -4.5
v 4 9 -4.5
v 5 7 -4.5
v 5 9 -4.5
v -4 7 -5.5
v -4 12 -5.5
v -3 7 -5.5
v -3 11 -5.5
v 3 7 -5.5
v 3 11 -5.5
v 4 7 -5.5
v 4 12 -5.5
v -5 0 -10.5
v -5 1 -10.5
v -4 0 -10.5
v -4 1 -10.5
v 4 0 -10.5
v 4 1 -10.5
v 5 0 -10.5
v 5 1 -10.5
v -5 1 -12.5
v -5 2 -12.5
v -5 7 -12.5
v -4 4 -12.5
v -4 5 -12.5
v -2 4 -12.5
v -2 5 -12.5
v 2 4 -12.5
v 2 5 -12.5
v 4 4 -12.5
v 4 5 -12.5
v 5 1 -12.5
v 5 2 -12.5
v 5 7 -12.5
v -5 0 10.5
v -4 0 10.5
v 4 0 10.5
v 5 0 10.5
v -5 0 6.5
v -4 0 6.5
v 4 0 6.5
v 5 0 6.5
v -5 0 -6.5
v -4 0 -6.5
v 4 0 -6.5
v 5 0 -6.5
v -5 0 -10.5
v -4 0 -10.5
v 4 0 -10.5
v 5 0 -10.5
v -5 1 12.5
v 5 1 12.5
v -4 1 11.5
v 4 1 11.5
v -5 1 10.5
v -4 1 10.5
v 4 1 10.5
v 5 1 10.5
v -5 1 6.5
v -4 1 6.5
v 4 1 6.5
v 5 1 6.5
v -5 1 -6.5
v -4 1 -6.5
v 4 1 -6.5
v 5 1 -6.5
v -5 1 -10.5
v -4 1 -10.5
v 4 1 -10.5
v 5 1 -10.5
v -4 1 -11.5
v 4 1 -11.5
v -5 1 -12.5
v 5 1 -12.5
v -4 2 11.5
v 4 2 11.5
v -4 2 10.5
v 4 2 10.5
v -4 2 9.5
v 4 2 9.5
v -4 2 8.5
v 4 2 8.5
v -4 2 7.5
v 4 2 7.5
v -4 2 6.5
v 4 2 6.5
v -4 2 -6.5
v 4 2 -6.5
v -4 2 -7.5
v 4 2 -7.5
v -4 2 -9.5
v 4 2 -9.5
v -4 2 -10.5
v 4 2 -10.5
v -4 2 -11.5
v 4 2 -11.5
v -5 7 12.5
v 5 7 12.5
v -4 7 8.5
v -3 7 8.5
v 3 7 8.5
v 4 7 8.5
v -4 7 7.5
v 4 7 7.5
v -4 7 4.5
v 4 7 4.5
v -4 7 3.5
v 4 7 3.5
v -5 7 -3.5
v -4 7 -3.5
v 4 7 -3.5
v 5 7 -3.5
v -5 7 -4.5
v -4 7 -4.5
v 4 7 -4.5
v 5 7 -4.5
v -4 7 -5.5
v -3 7 -5.5
v 3 7 -5.5
v 4 7 -5.5
v -5 7 -12.5
v 5 7 -12.5
v -5 9 -3.5
v -4 9 -3.5
v 4 9 -3.5
v 5 9 -3.5
v -5 9 -4.5
v -4 9 -4.5
v 4 9 -4.5
v 5 9 -4.5
v -4 12 8.5
v 4 12 8.5
v -3 12 2.5
v 3 12 2.5
v -3 12 -3.5
v 3 12 -3.5
v -4 12 -5.5
v 4 12 -5.5
v -3 13 2.5
v 3 13 2.5
v -3 13 -3.5
v 3 13 -3.5

# faces
f 6/3/1 2/3/1 1/3/1
f 7/3/1 2/3/1 6/3/1
f 8/3/1 2/3/1 7/3/1
f 9/3/1 2/3/1 8/3/1
f 10/3/1 4/3/1 3/3/1
f 11/3/1 4/3/1 10/3/1
f 12/3/1 4/3/1 11/3/1
f 13/3/1 4/3/1 12/3/1
f 15/4/1 6/4/1 5/4/1
f 16/3/1 7/3/1 6/3/1
f 16/4/1 6/4/1 15/4/1
f 17/3/1 9/3/1 8/3/1
f 17/4/1 10/4/1 9/4/1
f 18/3/1 11/3/1 10/3/1
f 18/4/1 10/4/1 17/4/1
f 19/4/1 14/4/1 13/4/1
f 19/3/1 13/3/1 12/3/1
f 20/4/1 14/4/1 19/4/1
f 21/3/1 7/3/1 16/3/1
f 21/2/1 8/2/1 7/2/1
f 22/3/1 17/3/1 8/3/1
f 22/2/1 8/2/1 21/2/1
f 23/3/1 11/3/1 18/3/1
f 23/2/1 12/2/1 11/2/1
f 24/3/1 19/3/1 12/3/1
f 24/2/1 12/2/1 23/2/1
f 25/1/1 16/1/1 15/1/1
f 25/3/1 21/3/1 16/3/1
f 25/3/1 22/3/1 21/3/1
f 26/3/1 17/3/1 22/3/1
f 26/3/1 22/3/1 25/3/1
f 26/1/1 18/1/1 17/1/1
f 27/3/1 24/3/1 23/3/1
f 27/1/1 18/1/1 26/1/1
f 27/3/1 23/3/1 18/3/1
f 28/1/1 20/1/1 19/1/1
f 28/3/1 24/3/1 27/3/1
f 28/3/1 19/3/1 24/3/1
f 29/1/1 25/1/1 15/1/1
f 29/1/1 27/1/1 26/1/1
f 29/1/1 28/1/1 27/1/1
f 29/1/1 26/1/1 25/1/1
f 30/1/1 28/1/1 29/1/1
f 31/1/1 28/1/1 30/1/1
f 32/1/1 20/1/1 28/1/1
f 32/1/1 28/1/1 31/1/1
f 33/1/1 31/1/1 30/1/1
f 34/1/1 31/1/1 33/1/1
f 42/3/1 39/3/1 38/3/1
f 43/2/1 41/2/1 40/2/1
f 44/2/1 36/2/1 35/2/1
f 44/3/1 37/3/1 36/3/1
f 45/2/1 38/2/1 37/2/1
f 45/3/1 37/3/1 44/3/1
f 46/3/1 42/3/1 38/3/1
f 46/2/1 38/2/1 45/2/1
f 47/2/1 43/2/1 42/2/1
f 47/3/1 42/3/1 46/3/1
f 48/2/1 46/2/1 45/2/1
f 48/2/1 44/2/1 35/2/1
f 48/2/1 47/2/1 46/2/1
f 48/2/1 45/2/1 44/2/1
f 49/2/1 43/2/1 47/2/1
f 49/2/1 47/2/1 48/2/1
f 49/2/1 41/2/1 43/2/1
f 52/1/1 51/1/1 50/1/1
f 53/1/1 51/1/1 52/1/1
f 59/3/1 55/3/1 54/3/1
f 60/3/1 55/3/1 59/3/1
f 61/3/1 55/3/1 60/3/1
f 62/3/1 55/3/1 61/3/1
f 63/3/1 57/3/1 56/3/1
f 64/3/1 57/3/1 63/3/1
f 65/3/1 57/3/1 64/3/1
f 66/3/1 57/3/1 65/3/1
f 68/4/1 59/4/1 58/4/1
f 69/3/1 60/3/1 59/3/1
f 69/4/1 59/4/1 68/4/1
f 70/2/1 61/2/1 60/2/1
f 70/3/1 60/3/1 69/3/1
f 71/2/1 61/2/1 70/2/1
f 72/3/1 62/3/1 61/3/1
f 72/2/1 61/2/1 71/2/1
f 73/4/1 63/4/1 62/4/1
f 73/3/1 62/3/1 72/3/1
f 74/3/1 64/3/1 63/3/1
f 74/4/1 63/4/1 73/4/1
f 75/2/1 65/2/1 64/2/1
f 75/3/1 64/3/1 74/3/1
f 76/3/1 66/3/1 65/3/1
f 76/2/1 65/2/1 75/2/1
f 77/4/1 67/4/1 66/4/1
f 77/3/1 66/3/1 76/3/1
f 78/4/1 67/4/1 77/4/1
f 79/3/2 80/3/2 84/3/2
f 84/3/2 80/3/2 85/3/2
f 85/3/2 80/3/2 86/3/2
f 86/3/2 80/3/2 87/3/2
f 81/3/2 82/3/2 88/3/2
f 88/3/2 82/3/2 89/3/2
f 89/3/2 82/3/2 90/3/2
f 90/3/2 82/3/2 91/3/2
f 83/4/2 84/4/2 93/4/2
f 84/3/2 85/3/2 94/3/2
f 93/4/2 84/4/2 94/4/2
f 85/2/2 86/2/2 95/2/2
f 94/3/2 85/3/2 95/3/2
f 95/2/2 86/2/2 96/2/2
f 86/3/2 87/3/2 97/3/2
f 96/2/2 86/2/2 97/2/2
f 87/4/2 88/4/2 98/4/2
f 97/3/2 87/3/2 98/3/2
f 88/3/2 89/3/2 99/3/2
f 98/4/2 88/4/2 99/4/2
f 89/2/2 90/2/2 100/2/2
f 99/3/2 89/3/2 100/3/2
f 90/3/2 91/3/2 101/3/2
f 100/2/2 90/2/2 101/2/2
f 91/4/2 92/4/2 102/4/2
f 101/3/2 91/3/2 102/3/2
f 102/4/2 92/4/2 103/4/2
f 104/1/2 105/1/2 106/1/2
f 106/1/2 105/1/2 107/1/2
f 111/3/2 112/3/2 115/3/2
f 113/2/2 114/2/2 116/2/2
f 108/2/2 109/2/2 117/2/2
f 109/3/2 110/3/2 117/3/2
f 110/2/2 111/2/2 118/2/2
f 117/3/2 110/3/2 118/3/2
f 111/3/2 115/3/2 119/3/2
f 118/2/2 111/2/2 119/2/2
f 115/2/2 116/2/2 120/2/2
f 119/3/2 115/3/2 120/3/2
f 118/2/2 119/2/2 121/2/2
f 108/2/2 117/2/2 121/2/2
f 119/2/2 120/2/2 121/2/2
f 117/2/2 118/2/2 121/2/2
f 120/2/2 116/2/2 122/2/2
f 121/2/2 120/2/2 122/2/2
f 116/2/2 114/2/2 122/2/2
f 123/3/2 124/3/2 128/3/2
f 128/3/2 124/3/2 129/3/2
f 129/3/2 124/3/2 130/3/2
f 130/3/2 124/3/2 131/3/2
f 125/3/2 126/3/2 132/3/2
f 132/3/2 126/3/2 133/3/2
f 133/3/2 126/3/2 134/3/2
f 134/3/2 126/3/2 135/3/2
f 127/4/2 128/4/2 137/4/2
f 128/3/2 129/3/2 138/3/2
f 137/4/2 128/4/2 138/4/2
f 130/3/2 131/3/2 139/3/2
f 131/4/2 132/4/2 139/4/2
f 132/3/2 133/3/2 140/3/2
f 139/4/2 132/4/2 140/4/2
f 135/4/2 136/4/2 141/4/2
f 134/3/2 135/3/2 141/3/2
f 141/4/2 136/4/2 142/4/2
f 138/3/2 129/3/2 143/3/2
f 129/2/2 130/2/2 143/2/2
f 130/3/2 139/3/2 144/3/2
f 143/2/2 130/2/2 144/2/2
f 140/3/2 133/3/2 145/3/2
f 133/2/2 134/2/2 145/2/2
f 134/3/2 141/3/2 146/3/2
f 145/2/2 134/2/2 146/2/2
f 137/1/2 138/1/2 147/1/2
f 138/3/2 143/3/2 147/3/2
f 143/3/2 144/3/2 147/3/2
f 144/3/2 139/3/2 148/3/2
f 147/3/2 144/3/2 148/3/2
f 139/1/2 140/1/2 148/1/2
f 145/3/2 146/3/2 149/3/2
f 148/1/2 140/1/2 149/1/2
f 140/3/2 145/3/2 149/3/2
f 141/1/2 142/1/2 150/1/2
f 149/3/2 146/3/2 150/3/2
f 146/3/2 141/3/2 150/3/2
f 137/1/2 147/1/2 151/1/2
f 148/1/2 149/1/2 151/1/2
f 149/1/2 150/1/2 151/1/2
f 147/1/2 148/1/2 151/1/2
f 151/1/2 150/1/2 152/1/2
f 152/1/2 150/1/2 153/1/2
f 150/1/2 142/1/2 154/1/2
f 153/1/2 150/1/2 154/1/2
f 152/1/2 153/1/2 155/1/2
f 155/1/2 153/1/2 156/1/2
f 160/1/3 159/1/3 158/1/3
f 161/1/3 159/1/3 160/1/3
f 162/1/3 160/1/3 158/1/3
f 162/3/3 161/3/3 160/3/3
f 163/1/3 159/1/3 161/1/3
f 163/3/3 161/3/3 162/3/3
f 164/1/3 162/1/3 158/1/3
f 164/1/3 163/1/3 162/1/3
f 165/1/3 159/1/3 163/1/3
f 165/1/3 163/1/3 164/1/3
f 166/1/3 164/1/3 158/1/3
f 166/3/3 165/3/3 164/3/3
f 167/1/3 159/1/3 165/1/3
f 167/3/3 165/3/3 166/3/3
f 168/4/3 158/4/3 157/4/3
f 169/1/3 166/1/3 158/1/3
f 169/4/3 158/4/3 168/4/3
f 169/1/3 167/1/3 166/1/3
f 170/1/3 159/1/3 167/1/3
f 170/1/3 167/1/3 169/1/3
f 173/3/3 172/3/3 171/3/3
f 174/3/3 172/3/3 173/3/3
f 177/3/3 176/3/3 175/3/3
f 178/3/3 176/3/3 177/3/3
f 181/2/3 180/2/3 179/2/3
f 182/2/3 180/2/3 181/2/3
f 183/3/3 182/3/3 181/3/3
f 184/2/3 180/2/3 182/2/3
f 184/3/3 182/3/3 183/3/3
f 185/2/3 184/2/3 183/2/3
f 186/2/3 180/2/3 184/2/3
f 186/2/3 184/2/3 185/2/3
f 189/1/3 188/1/3 187/1/3
f 190/1/3 188/1/3 189/1/3
f 193/1/3 192/1/3 191/1/3
f 194/1/3 192/1/3 193/1/3
f 197/1/3 196/1/3 195/1/3
f 198/1/3 196/1/3 197/1/3
f 201/3/3 200/3/3 199/3/3
f 202/3/3 200/3/3 201/3/3
f 205/3/3 204/3/3 203/3/3
f 206/3/3 204/3/3 205/3/3
f 209/4/3 208/4/3 207/4/3
f 210/4/3 208/4/3 209/4/3
f 211/4/4 212/4/4 213/4/4
f 213/4/4 212/4/4 214/4/4
f 215/3/4 216/3/4 217/3/4
f 217/3/4 216/3/4 218/3/4
f 219/3/4 220/3/4 221/3/4
f 221/3/4 220/3/4 222/3/4
f 223/1/4 224/1/4 225/1/4
f 225/1/4 224/1/4 226/1/4
f 227/1/4 228/1/4 229/1/4
f 229/1/4 228/1/4 230/1/4
f 231/1/4 232/1/4 233/1/4
f 233/1/4 232/1/4 234/1/4
f 235/2/4 236/2/4 237/2/4
f 237/2/4 236/2/4 238/2/4
f 237/3/4 238/3/4 239/3/4
f 238/2/4 236/2/4 240/2/4
f 239/3/4 238/3/4 240/3/4
f 239/2/4 240/2/4 241/2/4
f 240/2/4 236/2/4 242/2/4
f 241/2/4 240/2/4 242/2/4
f 243/3/4 244/3/4 245/3/4
f 245/3/4 244/3/4 246/3/4
f 247/3/4 248/3/4 249/3/4
f 249/3/4 248/3/4 250/3/4
f 252/1/4 253/1/4 254/1/4
f 254/1/4 253/1/4 255/1/4
f 252/1/4 254/1/4 256/1/4
f 254/3/4 255/3/4 256/3/4
f 255/1/4 253/1/4 257/1/4
f 256/3/4 255/3/4 257/3/4
f 252/1/4 256/1/4 258/1/4
f 256/1/4 257/1/4 258/1/4
f 257/1/4 253/1/4 259/1/4
f 258/1/4 257/1/4 259/1/4
f 252/1/4 258/1/4 260/1/4
f 258/3/4 259/3/4 260/3/4
f 259/1/4 253/1/4 261/1/4
f 260/3/4 259/3/4 261/3/4
f 251/4/4 252/4/4 262/4/4
f 252/1/4 260/1/4 263/1/4
f 262/4/4 252/4/4 263/4/4
f 260/1/4 261/1/4 263/1/4
f 261/1/4 253/1/4 264/1/4
f 263/1/4 261/1/4 264/1/4
f 269/3/5 266/3/5 265/3/5
f 270/3/5 266/3/5 269/3/5
f 271/3/5 268/3/5 267/3/5
f 272/3/5 268/3/5 271/3/5
f 277/3/5 274/3/5 273/3/5
f 278/3/5 274/3/5 277/3/5
f 279/3/5 276/3/5 275/3/5
f 280/3/5 276/3/5 279/3/5
f 283/4/5 282/4/5 281/4/5
f 284/4/5 282/4/5 283/4/5
f 285/4/5 283/4/5 281/4/5
f 286/4/5 283/4/5 285/4/5
f 287/4/5 282/4/5 284/4/5
f 288/4/5 282/4/5 287/4/5
f 293/4/5 290/4/5 289/4/5
f 294/4/5 290/4/5 293/4/5
f 295/4/5 292/4/5 291/4/5
f 296/4/5 292/4/5 295/4/5
f 301/4/5 298/4/5 297/4/5
f 302/4/5 300/4/5 299/4/5
f 303/4/5 301/4/5 297/4/5
f 303/4/5 302/4/5 301/4/5
f 304/4/5 300/4/5 302/4/5
f 304/4/5 302/4/5 303/4/5
f 307/1/5 306/1/5 305/1/5
f 308/1/5 306/1/5 307/1/5
f 309/1/5 308/1/5 307/1/5
f 310/1/5 308/1/5 309/1/5
f 311/1/5 310/1/5 309/1/5
f 312/1/5 310/1/5 311/1/5
f 313/2/5 312/2/5 311/2/5
f 314/2/5 312/2/5 313/2/5
f 315/2/5 314/2/5 313/2/5
f 316/2/5 314/2/5 315/2/5
f 317/2/5 316/2/5 315/2/5
f 318/2/5 316/2/5 317/2/5
f 319/2/5 318/2/5 317/2/5
f 320/2/5 318/2/5 319/2/5
f 321/2/5 320/2/5 319/2/5
f 322/2/5 320/2/5 321/2/5
f 323/1/5 322/1/5 321/1/5
f 324/1/5 322/1/5 323/1/5
f 325/1/5 324/1/5 323/1/5
f 326/1/5 324/1/5 325/1/5
f 327/1/6 328/1/6 329/1/6
f 329/1/6 328/1/6 330/1/6
f 330/1/6 328/1/6 331/1/6
f 331/1/6 328/1/6 332/1/6
f 327/1/6 329/1/6 333/1/6
f 332/1/6 328/1/6 334/1/6
f 327/1/6 333/1/6 335/1/6
f 334/1/6 328/1/6 336/1/6
f 327/1/6 335/1/6 337/1/6
f 336/1/6 328/1/6 338/1/6
f 327/1/6 337/1/6 339/1/6
f 339/1/6 337/1/6 340/1/6
f 338/1/6 328/1/6 341/1/6
f 341/1/6 328/1/6 342/1/6
f 343/1/6 344/1/6 347/1/6
f 345/1/6 346/1/6 350/1/6
f 348/1/6 349/1/6 351/1/6
f 349/1/6 350/1/6 351/1/6
f 343/1/6 347/1/6 351/1/6
f 347/1/6 348/1/6 351/1/6
f 350/1/6 346/1/6 352/1/6
f 351/1/6 350/1/6 352/1/6
f 353/1/6 354/1/6 357/1/6
f 357/1/6 354/1/6 358/1/6
f 355/1/6 356/1/6 359/1/6
f 359/1/6 356/1/6 360/1/6
f 361/2/6 362/2/6 363/2/6
f 363/2/6 362/2/6 364/2/6
f 361/2/6 363/2/6 365/2/6
f 364/2/6 362/2/6 366/2/6
f 361/2/6 365/2/6 367/2/6
f 365/2/6 366/2/6 367/2/6
f 366/2/6 362/2/6 368/2/6
f 367/2/6 366/2/6 368/2/6
f 369/1/6 370/1/6 371/1/6
f 371/1/6 370/1/6 372/1/6
